<svg width="354" height="764" viewBox="0 0 354 764" fill="none" xmlns="http://www.w3.org/2000/svg">
<path d="M0.00149004 381.852V62.572C0.00149004 54.5826 -0.0772177 46.5866 0.909449 38.636C2.14678 28.6533 5.54681 19.6453 12.9081 12.4546C19.2415 6.26797 26.9841 2.99997 35.5774 1.52931C39.9681 0.775974 44.3988 0.435975 48.8561 0.361308C57.7535 0.210642 66.6481 0.177298 75.5481 0.305298C79.0388 0.355965 81.1948 2.77464 81.3414 5.81464C81.4614 8.3373 81.5268 10.868 82.0601 13.3853C83.7774 21.504 90.7188 27.9773 99.2761 28.8306C101.813 29.084 104.345 29.1946 106.887 29.1946C153.472 29.196 200.055 29.1946 246.64 29.1893C250.179 29.1893 253.712 29.144 257.168 28.2106C265.66 25.92 271.283 18.408 271.703 9.60397C271.78 7.97197 271.849 6.33064 272.093 4.71864C272.464 2.27864 274.192 0.691967 276.632 0.4133C277.623 0.299967 278.624 0.231967 279.623 0.227967C289.247 0.202633 298.877 0.0346337 308.493 0.5053C316.146 0.879967 323.677 2.09064 330.613 5.5893C341.893 11.2773 348.515 20.5666 351.307 32.76C352.715 38.9066 353.005 45.1586 353.145 51.424C353.233 55.3266 353.238 59.2333 353.238 63.1373C353.251 276.447 353.251 489.753 353.251 703.063C353.251 710.508 353.267 717.959 352.345 725.364C351.098 735.345 347.697 744.359 340.338 751.543C334.435 757.305 327.262 760.576 319.265 762.159C312.379 763.524 305.388 763.777 298.395 763.788C276.873 763.813 255.352 763.813 233.829 763.813H58.6601C51.4854 763.813 44.3094 763.744 37.1921 762.716C26.1134 761.116 16.5147 756.727 9.47341 747.669C5.14541 742.101 2.70146 735.719 1.45746 728.84C0.0281301 720.935 0.0321014 712.936 0.0281014 704.947C0.00276803 661.268 0.014755 617.591 0.014755 573.911C0.0134217 509.892 0.014755 445.871 0.014755 381.852H0.00149004Z" fill="#6C00FF"/>
</svg>
