<svg width="24" height="23" viewBox="0 0 24 23" fill="none" xmlns="http://www.w3.org/2000/svg">
<rect width="24" height="23" rx="3" fill="white"/>
<path fill-rule="evenodd" clip-rule="evenodd" d="M10.5007 9.00037H13.2673V10.4187H13.3073C13.6926 9.72749 14.6347 9.00037 16.0395 9.00037C18.9608 9.00037 19.5011 10.8184 19.5011 13.1834V18.0011H16.616V13.7304C16.616 12.7124 16.5948 11.4018 15.1158 11.4018C13.6135 11.4018 13.3833 12.5101 13.3833 13.6563V18.0011H10.5007V9.00037H10.5007ZM8.50054 6.50021C8.50054 7.32835 7.82847 8.00042 7.00033 8.00042C6.17219 8.00042 5.49988 7.32835 5.49988 6.50021C5.49988 5.67207 6.17219 5 7.00033 5C7.82847 5 8.50054 5.67207 8.50054 6.50021ZM5.49988 9.00037H8.50054V18.0011H5.49988V9.00037Z" fill="#3441D3"/>
</svg>
