<svg width="238" height="46" viewBox="0 0 238 46" fill="none" xmlns="http://www.w3.org/2000/svg">
<path d="M4 19.6L4 26.8" stroke="#295153" stroke-width="6.4" stroke-linecap="round"/>
<path d="M18.4004 12L18.4004 34.4" stroke="#295153" stroke-width="6.4" stroke-linecap="round"/>
<path opacity="0.7" d="M32.7998 19.6L32.7998 26.8" stroke="#295153" stroke-width="6.4" stroke-linecap="round"/>
<path d="M47.2002 12L47.2002 34.4" stroke="#295153" stroke-width="6.4" stroke-linecap="round"/>
<path opacity="0.4" d="M61.6006 12L61.6006 34.4" stroke="#295153" stroke-width="6.4" stroke-linecap="round"/>
<path d="M76 12L76 34.4" stroke="#295153" stroke-width="6.4" stroke-linecap="round"/>
<path opacity="0.7" d="M90.4004 19.6L90.4004 26.8" stroke="#295153" stroke-width="6.4" stroke-linecap="round"/>
<path d="M104.8 16L104.8 30.4" stroke="#295153" stroke-width="6.4" stroke-linecap="round"/>
<path opacity="0.4" d="M119.2 16L119.2 30.4" stroke="#295153" stroke-width="6.4" stroke-linecap="round"/>
<path d="M133.601 4L133.601 42.4" stroke="#295153" stroke-width="6.4" stroke-linecap="round"/>
<path opacity="0.7" d="M148 19.6L148 26.8" stroke="#295153" stroke-width="6.4" stroke-linecap="round"/>
<path d="M162.4 16L162.4 30.4" stroke="#295153" stroke-width="6.4" stroke-linecap="round"/>
<path d="M176.8 12L176.8 34.4" stroke="#295153" stroke-width="6.4" stroke-linecap="round"/>
<path opacity="0.4" d="M191.2 4L191.2 42.4" stroke="#295153" stroke-width="6.4" stroke-linecap="round"/>
<path opacity="0.7" d="M205.601 12L205.601 34.4" stroke="#295153" stroke-width="6.4" stroke-linecap="round"/>
<path opacity="0.6" d="M220 19.6L220 26.8" stroke="#295153" stroke-width="6.4" stroke-linecap="round"/>
<path opacity="0.7" d="M234.4 16L234.4 30.4" stroke="#295153" stroke-width="6.4" stroke-linecap="round"/>
</svg>
