<svg width="360" height="360" viewBox="0 0 360 360" fill="none" xmlns="http://www.w3.org/2000/svg">
<path fill-rule="evenodd" clip-rule="evenodd" d="M234.489 0C270.63 0 288.696 0 308.151 6.15C329.391 13.881 346.119 30.609 353.85 51.849C360 71.301 360 89.373 360 125.511V234.489C360 270.63 360 288.696 353.85 308.151C346.119 329.391 329.391 346.119 308.151 353.847C288.696 360 270.63 360 234.489 360H125.511C89.37 360 71.301 360 51.849 353.847C30.609 346.119 13.881 329.391 6.15 308.151C0 288.696 0 270.63 0 234.489L0 125.511C0 89.373 0 71.301 6.15 51.849C13.881 30.609 30.609 13.881 51.849 6.15C71.301 0 89.37 0 125.511 0L234.489 0Z" fill="#212121"/>
<rect x="60" y="60" width="240" height="240" rx="43" fill="#E46F50"/>
<path d="M60 212H300V230.34C300 255.234 300 267.681 295.002 277.121C290.969 284.739 284.739 290.969 277.121 295.002C267.681 300 255.234 300 230.34 300H129.66C104.766 300 92.3187 300 82.879 295.002C75.2612 290.969 69.0315 284.739 64.9981 277.121C60 267.681 60 255.234 60 230.34V212Z" fill="#EDB45D"/>
<rect x="147" y="100" width="69" height="165" fill="white"/>
<path d="M209.69 85.5559L150.316 85.5615C148.223 85.5611 146.15 85.9731 144.215 86.774C142.281 87.575 140.524 88.7491 139.043 90.2295C137.563 91.7098 136.389 93.4672 135.588 95.4015C134.787 97.3357 134.375 99.4087 134.375 101.502L134.37 258.503C134.369 260.597 134.781 262.67 135.582 264.604C136.383 266.538 137.557 268.296 139.038 269.776C140.518 271.256 142.275 272.431 144.21 273.232C146.144 274.033 148.217 274.445 150.31 274.444L209.684 274.439C211.777 274.439 213.85 274.027 215.785 273.226C217.719 272.425 219.476 271.251 220.957 269.771C222.437 268.29 223.611 266.533 224.412 264.599C225.213 262.664 225.625 260.591 225.625 258.498L225.63 101.497C225.631 99.4031 225.219 97.33 224.418 95.3958C223.617 93.4616 222.443 91.7042 220.962 90.2238C219.482 88.7435 217.724 87.5693 215.79 86.7684C213.856 85.9675 211.783 85.5554 209.69 85.5559ZM206.495 255.314L153.528 255.314L153.517 225.642L180.023 225.642C182.563 225.642 185 224.632 186.796 222.836C188.592 221.039 189.602 218.603 189.602 216.062C189.602 213.522 188.592 211.085 186.796 209.289C185 207.493 182.563 206.483 180.023 206.483L153.517 206.483L153.517 189.579L180.017 189.585C182.557 189.585 184.994 188.576 186.79 186.779C188.587 184.983 189.596 182.546 189.596 180.006C189.596 177.465 188.587 175.029 186.79 173.232C184.994 171.436 182.557 170.427 180.017 170.427L153.517 170.421V153.517L180.023 153.517C182.563 153.517 185 152.507 186.796 150.711C188.592 148.915 189.602 146.478 189.602 143.938C189.602 141.397 188.592 138.961 186.796 137.164C185 135.368 182.563 134.358 180.023 134.358L153.517 134.358L153.522 104.669L206.489 104.669L206.495 255.314Z" fill="black"/>
</svg>
