<svg width="360" height="360" viewBox="0 0 360 360" fill="none" xmlns="http://www.w3.org/2000/svg">
<mask id="mask0_241_113" style="mask-type:alpha" maskUnits="userSpaceOnUse" x="0" y="0" width="360" height="360">
<path fill-rule="evenodd" clip-rule="evenodd" d="M234.489 0C270.63 0 288.696 0 308.151 6.15C329.391 13.881 346.119 30.609 353.85 51.849C360 71.301 360 89.373 360 125.511V234.489C360 270.63 360 288.696 353.85 308.151C346.119 329.391 329.391 346.119 308.151 353.847C288.696 360 270.63 360 234.489 360H125.511C89.37 360 71.301 360 51.849 353.847C30.609 346.119 13.881 329.391 6.15 308.151C0 288.696 0 270.63 0 234.489L0 125.511C0 89.373 0 71.301 6.15 51.849C13.881 30.609 30.609 13.881 51.849 6.15C71.301 0 89.37 0 125.511 0L234.489 0Z" fill="#212121"/>
</mask>
<g mask="url(#mask0_241_113)">
<g clip-path="url(#clip0_241_113)">
<rect width="360" height="360" fill="#ECE9DF"/>
<g filter="url(#filter0_d_241_113)">
<path fill-rule="evenodd" clip-rule="evenodd" d="M206.197 308.762C277.31 294.294 323.23 224.916 308.762 153.803C305.963 140.047 301.11 127.233 294.587 115.617C292.224 108.623 288.06 102.62 282.734 98.0311C252.932 60.7404 203.796 41.0667 153.803 51.2379C82.6896 65.7061 36.7697 135.084 51.2378 206.197C65.706 277.31 135.084 323.23 206.197 308.762ZM261.342 88.5288C233.531 63.8355 194.848 52.0716 155.597 60.0572C89.3547 73.5344 46.58 138.16 60.0572 204.403C73.5344 270.645 138.16 313.42 204.403 299.943C270.645 286.466 313.42 221.84 299.943 155.597C298.782 149.892 297.242 144.36 295.353 139.023C291.51 153.319 279.912 164.958 264.42 168.11C242.586 172.552 221.285 158.454 216.843 136.62C212.401 114.786 226.5 93.4851 248.334 89.043C252.736 88.1473 257.117 88.0054 261.342 88.5288Z" fill="white"/>
</g>
<mask id="path-4-outside-1_241_113" maskUnits="userSpaceOnUse" x="25.0409" y="25.0011" width="310.154" height="310.154" fill="black">
<rect fill="white" x="25.0409" y="25.0011" width="310.154" height="310.154"/>
<path fill-rule="evenodd" clip-rule="evenodd" d="M204.403 299.943C270.645 286.466 313.42 221.84 299.943 155.597C286.466 89.3548 221.84 46.58 155.597 60.0572C89.3548 73.5344 46.58 138.16 60.0572 204.403C73.5344 270.645 138.16 313.42 204.403 299.943Z"/>
</mask>
<path d="M206.197 308.762C277.31 294.294 323.23 224.916 308.762 153.803L291.123 157.392C303.61 218.763 263.98 278.637 202.608 291.123L206.197 308.762ZM308.762 153.803C294.294 82.6897 224.916 36.7697 153.803 51.2379L157.392 68.8765C218.763 56.3903 278.637 96.0199 291.123 157.392L308.762 153.803ZM153.803 51.2379C82.6897 65.7061 36.7697 135.084 51.2379 206.197L68.8765 202.608C56.3903 141.237 96.0198 81.3628 157.392 68.8765L153.803 51.2379ZM51.2379 206.197C65.706 277.31 135.084 323.23 206.197 308.762L202.608 291.123C141.236 303.61 81.3627 263.98 68.8765 202.608L51.2379 206.197Z" fill="white" mask="url(#path-4-outside-1_241_113)"/>
<path d="M293.233 157.378C305.917 219.724 265.659 280.548 203.313 293.233C140.967 305.917 80.1425 265.659 67.4581 203.313C54.7737 140.967 95.0323 80.1426 157.378 67.4582C219.724 54.7738 280.548 95.0324 293.233 157.378Z" fill="#FFDA41" stroke="#0F0617" stroke-width="14.4"/>
<mask id="path-7-inside-2_241_113" fill="white">
<path fill-rule="evenodd" clip-rule="evenodd" d="M118.996 194.586C115.653 190.945 114.89 185.642 117.044 181.193C129.339 155.787 152.924 138.6 180 138.6C207.076 138.6 230.661 155.787 242.956 181.193C245.109 185.642 244.347 190.945 241.004 194.586C225.869 211.069 204.141 221.4 180 221.4C155.859 221.4 134.131 211.069 118.996 194.586Z"/>
</mask>
<path fill-rule="evenodd" clip-rule="evenodd" d="M118.996 194.586C115.653 190.945 114.89 185.642 117.044 181.193C129.339 155.787 152.924 138.6 180 138.6C207.076 138.6 230.661 155.787 242.956 181.193C245.109 185.642 244.347 190.945 241.004 194.586C225.869 211.069 204.141 221.4 180 221.4C155.859 221.4 134.131 211.069 118.996 194.586Z" fill="white"/>
<path d="M130.006 187.465C140.35 166.091 159.417 153 180 153V124.2C146.431 124.2 118.327 145.483 104.082 174.92L130.006 187.465ZM180 153C200.583 153 219.65 166.091 229.994 187.465L255.918 174.92C241.672 145.483 213.569 124.2 180 124.2V153ZM230.397 184.847C217.875 198.484 199.942 207 180 207V235.8C208.339 235.8 233.863 223.653 251.61 204.326L230.397 184.847ZM180 207C160.057 207 142.125 198.484 129.603 184.847L108.389 204.326C126.137 223.653 151.66 235.8 180 235.8V207ZM229.994 187.465C229.594 186.638 229.717 185.587 230.397 184.847L251.61 204.326C258.977 196.303 260.625 184.646 255.918 174.92L229.994 187.465ZM104.082 174.92C99.3748 184.646 101.023 196.303 108.389 204.326L129.603 184.847C130.282 185.587 130.406 186.638 130.006 187.465L104.082 174.92Z" fill="#0F0617" mask="url(#path-7-inside-2_241_113)"/>
<circle cx="180" cy="189" r="22.0235" fill="#8331FF" stroke="#0F0617" stroke-width="13.5529"/>
<path d="M122.561 187.143C122.561 187.143 118.961 206.515 126.161 221.761C133.36 237.008 144.162 243.285 144.162 243.285" stroke="#0F0617" stroke-width="14.4" stroke-linecap="round"/>
<line x1="7.2" y1="-7.2" x2="37.8" y2="-7.2" transform="matrix(0.5 0.866025 0.866025 -0.5 127.8 112.5)" stroke="#0F0617" stroke-width="14.4" stroke-linecap="round"/>
<line x1="230.071" y1="134.587" x2="237.271" y2="122.116" stroke="#0F0617" stroke-width="14.4" stroke-linecap="round"/>
<line x1="7.2" y1="-7.2" x2="37.8" y2="-7.2" transform="matrix(0 -1 -1 0 174.6 144)" stroke="#0F0617" stroke-width="14.4" stroke-linecap="round"/>
</g>
</g>
<defs>
<filter id="filter0_d_241_113" x="43.1741" y="44.9742" width="273.652" height="273.652" filterUnits="userSpaceOnUse" color-interpolation-filters="sRGB">
<feFlood flood-opacity="0" result="BackgroundImageFix"/>
<feColorMatrix in="SourceAlpha" type="matrix" values="0 0 0 0 0 0 0 0 0 0 0 0 0 0 0 0 0 0 127 0" result="hardAlpha"/>
<feOffset dy="1.8"/>
<feGaussianBlur stdDeviation="2.7"/>
<feColorMatrix type="matrix" values="0 0 0 0 0 0 0 0 0 0 0 0 0 0 0 0 0 0 0.11 0"/>
<feBlend mode="normal" in2="BackgroundImageFix" result="effect1_dropShadow_241_113"/>
<feBlend mode="normal" in="SourceGraphic" in2="effect1_dropShadow_241_113" result="shape"/>
</filter>
<clipPath id="clip0_241_113">
<rect width="360" height="360" fill="white"/>
</clipPath>
</defs>
</svg>
