<svg width="360" height="360" viewBox="0 0 360 360" fill="none" xmlns="http://www.w3.org/2000/svg">
<path fill-rule="evenodd" clip-rule="evenodd" d="M234.489 0C270.63 0 288.696 0 308.151 6.15C329.391 13.881 346.119 30.609 353.85 51.849C360 71.301 360 89.373 360 125.511V234.489C360 270.63 360 288.696 353.85 308.151C346.119 329.391 329.391 346.119 308.151 353.847C288.696 360 270.63 360 234.489 360H125.511C89.37 360 71.301 360 51.849 353.847C30.609 346.119 13.881 329.391 6.15 308.151C0 288.696 0 270.63 0 234.489L0 125.511C0 89.373 0 71.301 6.15 51.849C13.881 30.609 30.609 13.881 51.849 6.15C71.301 0 89.37 0 125.511 0L234.489 0Z" fill="#FBE74D"/>
<rect x="67.5" y="67.5" width="225" height="225" rx="35.5" fill="white" stroke="black" stroke-width="15"/>
<path d="M254.031 115.625V147.812C254.031 150.373 253.014 152.83 251.203 154.641C249.392 156.451 246.936 157.469 244.375 157.469C241.814 157.469 239.358 156.451 237.547 154.641C235.736 152.83 234.719 150.373 234.719 147.812V125.281H212.188C209.627 125.281 207.17 124.264 205.36 122.453C203.549 120.642 202.531 118.186 202.531 115.625C202.531 113.064 203.549 110.608 205.36 108.797C207.17 106.986 209.627 105.969 212.188 105.969H244.375C246.936 105.969 249.392 106.986 251.203 108.797C253.014 110.608 254.031 113.064 254.031 115.625ZM147.812 234.719H125.281V212.188C125.281 209.627 124.264 207.17 122.453 205.36C120.642 203.549 118.186 202.531 115.625 202.531C113.064 202.531 110.608 203.549 108.797 205.36C106.986 207.17 105.969 209.627 105.969 212.188V244.375C105.969 246.936 106.986 249.392 108.797 251.203C110.608 253.014 113.064 254.031 115.625 254.031H147.812C150.373 254.031 152.83 253.014 154.641 251.203C156.451 249.392 157.469 246.936 157.469 244.375C157.469 241.814 156.451 239.358 154.641 237.547C152.83 235.736 150.373 234.719 147.812 234.719ZM244.375 202.531C241.814 202.531 239.358 203.549 237.547 205.36C235.736 207.17 234.719 209.627 234.719 212.188V234.719H212.188C209.627 234.719 207.17 235.736 205.36 237.547C203.549 239.358 202.531 241.814 202.531 244.375C202.531 246.936 203.549 249.392 205.36 251.203C207.17 253.014 209.627 254.031 212.188 254.031H244.375C246.936 254.031 249.392 253.014 251.203 251.203C253.014 249.392 254.031 246.936 254.031 244.375V212.188C254.031 209.627 253.014 207.17 251.203 205.36C249.392 203.549 246.936 202.531 244.375 202.531ZM147.812 105.969H115.625C113.064 105.969 110.608 106.986 108.797 108.797C106.986 110.608 105.969 113.064 105.969 115.625V147.812C105.969 150.373 106.986 152.83 108.797 154.641C110.608 156.451 113.064 157.469 115.625 157.469C118.186 157.469 120.642 156.451 122.453 154.641C124.264 152.83 125.281 150.373 125.281 147.812V125.281H147.812C150.373 125.281 152.83 124.264 154.641 122.453C156.451 120.642 157.469 118.186 157.469 115.625C157.469 113.064 156.451 110.608 154.641 108.797C152.83 106.986 150.373 105.969 147.812 105.969Z" fill="black"/>
</svg>
