<?xml version="1.0" encoding="UTF-8"?>
<svg width="21px" height="15px" viewBox="0 0 21 15" version="1.1" xmlns="http://www.w3.org/2000/svg" xmlns:xlink="http://www.w3.org/1999/xlink">
    <!-- Generator: Sketch 41.1 (35376) - http://www.bohemiancoding.com/sketch -->
    <title>ES</title>
    <desc>Created with Sketch.</desc>
    <defs>
        <rect id="path-1" x="0" y="0" width="21" height="15"></rect>
        <rect id="path-3" x="0.5" y="0.5" width="20" height="14" rx="1"></rect>
    </defs>
    <g id=":)" stroke="none" stroke-width="1" fill="none" fill-rule="evenodd">
        <g id="Flags-by-@lucchaissac" transform="translate(-267.000000, -80.000000)">
            <g id="ES" transform="translate(267.000000, 80.000000)">
                <mask id="mask-2" fill="white">
                    <use xlink:href="#path-1"></use>
                </mask>
                <use id="background" fill="#FFD128" xlink:href="#path-1"></use>
                <rect id="bottom" fill="#CF3F4F" mask="url(#mask-2)" x="0" y="11" width="21" height="4"></rect>
                <rect id="top" fill="#CF3F4F" mask="url(#mask-2)" x="0" y="0" width="21" height="4"></rect>
                <path d="M3.99980749,5 C3.44762906,5 3,5.44371665 3,5.99980749 L3,9.00019251 C3,9.55237094 3.44371665,10 3.99980749,10 L7.00019251,10 C7.55237094,10 8,9.55628335 8,9.00019251 L8,5.99980749 C8,5.44762906 7.55628335,5 7.00019251,5 L3.99980749,5 Z M4,6 L4,9 L7,9 L7,6 L4,6 Z M5,6 L5,9 L6,9 L6,6 L5,6 Z" id="symbol" fill="#CF3F4F" mask="url(#mask-2)"></path>
                <path d="M6,7 L6,8 L7,8 L7,7 L6,7 Z M4,6 L4,7 L5,7 L5,6 L4,6 Z" id="circles" fill="#DC6943" mask="url(#mask-2)"></path>
                <mask id="mask-4" fill="white">
                    <use xlink:href="#path-3"></use>
                </mask>
                <g id="overlay"></g>
            </g>
        </g>
    </g>
</svg>