<?xml version="1.0" encoding="UTF-8"?>
<svg width="21px" height="15px" viewBox="0 0 21 15" version="1.1" xmlns="http://www.w3.org/2000/svg" xmlns:xlink="http://www.w3.org/1999/xlink">
    <!-- Generator: Sketch 41.1 (35376) - http://www.bohemiancoding.com/sketch -->
    <title>SA</title>
    <desc>Created with Sketch.</desc>
    <defs>
        <rect id="path-1" x="0" y="0" width="21" height="15"></rect>
        <rect id="path-3" x="0.5" y="0.5" width="20" height="14" rx="1"></rect>
    </defs>
    <g id=":)" stroke="none" stroke-width="1" fill="none" fill-rule="evenodd">
        <g id="Flags-by-@lucchaissac" transform="translate(-143.000000, -230.000000)">
            <g id="SA" transform="translate(143.000000, 230.000000)">
                <mask id="mask-2" fill="white">
                    <use xlink:href="#path-1"></use>
                </mask>
                <use id="background" fill="#1D8641" xlink:href="#path-1"></use>
                <path d="M14,10 L14,9 L15,9 L15,10 L16,10 L16,11 L15,11 L15,12 L14,12 L14,11 L5.5,11 L5.5,10 L14,10 Z" id="cross" fill="#FFFFFF" mask="url(#mask-2)"></path>
                <path d="M8,5.5 C8,5.18987177 6.9058832,4.90172569 6.74465378,4.66256594 C6.47520063,4.26287246 7.01829889,4 6.5,4 C5.67157288,4 5,4.67157288 5,5.5 C5,5.91397915 6.16770325,6.28878912 6.43887908,6.56019923 C6.71036202,6.8319167 6.08555203,7 6.5,7 C7.32842712,7 8,6.32842712 8,5.5 Z M12,5.5 C12,4.67157288 11.3284271,4 10.5,4 C10.1271312,4 9.78603839,5.13604942 9.52365431,5.36121559 C9.20308247,5.63631586 9,5.0444417 9,5.5 C9,6.32842712 9.67157288,7 10.5,7 C11.3284271,7 12,6.32842712 12,5.5 Z M14.6474044,6.46621076 C14.8674182,6.20520652 16,5.86808633 16,5.5 C16,4.67157288 15.3284271,4 14.5,4 C13.6715729,4 13,4.67157288 13,5.5 C13,6.32842712 13.6715729,7 14.5,7 C14.9603408,7 14.372248,6.79263118 14.6474044,6.46621076 Z" id="circle" fill="#FFFFFF" mask="url(#mask-2)"></path>
                <mask id="mask-4" fill="white">
                    <use xlink:href="#path-3"></use>
                </mask>
                <g id="overlay"></g>
            </g>
        </g>
    </g>
</svg>