<svg width="100" height="100" viewBox="0 0 100 100" fill="none" xmlns="http://www.w3.org/2000/svg">
<path d="M0 50C0 22.3858 22.3858 0 50 0V0C77.6142 0 100 22.3858 100 50V50C100 77.6142 77.6142 100 50 100V100C22.3858 100 0 77.6142 0 50V50Z" fill="#E8ECDF"/>
<g filter="url(#filter0_d)">
<path fill-rule="evenodd" clip-rule="evenodd" d="M57.2769 85.7672C77.0306 81.7483 89.7862 62.4768 85.7672 42.7231C84.9898 38.9019 83.6417 35.3426 81.8297 32.1159C81.1735 30.1732 80.0167 28.5055 78.5373 27.2308C70.2588 16.8723 56.6101 11.4074 42.7231 14.2327C22.9694 18.2517 10.2138 37.5232 14.2327 57.2769C18.2517 77.0306 37.5232 89.7862 57.2769 85.7672ZM72.595 24.5913C64.8697 17.7321 54.1244 14.4643 43.2215 16.6826C24.8208 20.4262 12.9389 38.3778 16.6826 56.7785C20.4262 75.1792 38.3778 87.0611 56.7785 83.3174C75.1792 79.5738 87.0611 61.6222 83.3174 43.2215C82.995 41.6365 82.5671 40.1 82.0426 38.6176C80.975 42.5885 77.7534 45.8217 73.45 46.6973C67.3851 47.9312 61.4681 44.0149 60.2342 37.9499C59.0003 31.885 62.9166 25.9681 68.9815 24.7342C70.2044 24.4854 71.4213 24.446 72.595 24.5913Z" fill="white"/>
</g>
<mask id="path-4-outside-1" maskUnits="userSpaceOnUse" x="6.36614" y="6.36616" width="87.2677" height="87.2677" fill="black">
<rect fill="white" x="6.36614" y="6.36616" width="87.2677" height="87.2677"/>
<path fill-rule="evenodd" clip-rule="evenodd" d="M56.7785 83.3174C75.1792 79.5738 87.0611 61.6222 83.3174 43.2215C79.5737 24.8208 61.6222 12.9389 43.2215 16.6825C24.8207 20.4262 12.9389 38.3778 16.6825 56.7785C20.4262 75.1792 38.3778 87.0611 56.7785 83.3174Z"/>
</mask>
<path d="M57.2769 85.7672C77.0306 81.7483 89.7862 62.4768 85.7672 42.7231L80.8676 43.7199C84.336 60.7676 73.3278 77.3992 56.2801 80.8676L57.2769 85.7672ZM85.7672 42.7231C81.7483 22.9694 62.4767 10.2138 42.723 14.2327L43.7199 19.1324C60.7676 15.664 77.3992 26.6722 80.8676 43.7199L85.7672 42.7231ZM42.723 14.2327C22.9693 18.2517 10.2138 37.5232 14.2327 57.2769L19.1323 56.2801C15.6639 39.2324 26.6722 22.6008 43.7199 19.1324L42.723 14.2327ZM14.2327 57.2769C18.2517 77.0306 37.5232 89.7862 57.2769 85.7672L56.2801 80.8676C39.2323 84.336 22.6007 73.3278 19.1323 56.2801L14.2327 57.2769Z" fill="white" mask="url(#path-4-outside-1)"/>
<path d="M73.8487 48.6571C80.9961 47.203 85.6113 40.2301 84.1572 33.0828C82.703 25.9354 75.7302 21.3202 68.5828 22.7743C61.4355 24.2285 56.8202 31.2013 58.2744 38.3487C59.7285 45.496 66.7014 50.1113 73.8487 48.6571Z" fill="#FAF7FF" stroke="white" stroke-width="4" stroke-linecap="round"/>
<path d="M81.3576 43.6202C84.881 60.9385 73.6981 77.8341 56.3797 81.3576C39.0614 84.881 22.1658 73.6981 18.6424 56.3798C15.1189 39.0614 26.3019 22.1659 43.6202 18.6424C60.9385 15.1189 77.8341 26.3019 81.3576 43.6202Z" fill="#B7C877" stroke="#295449" stroke-width="4"/>
<path d="M49.8129 54.0963L61 51.25C56.156 43.392 51.9896 36.1748 49.8822 28.0835" stroke="#295449" stroke-width="4" stroke-linecap="round" stroke-linejoin="round"/>
<path d="M39.2547 62.391C40.6971 69.4807 47.6137 74.0587 54.7034 72.6163C61.7931 71.1739 66.3711 64.2573 64.9287 57.1676" stroke="#295449" stroke-width="4" stroke-linecap="round" stroke-linejoin="round"/>
<path d="M34.6456 62.3083C34.6456 62.3083 37.2474 62.5443 39.2048 62.146C41.1623 61.7478 43.465 60.5139 43.465 60.5139" stroke="#295449" stroke-width="4" stroke-linecap="round" stroke-linejoin="round"/>
<path opacity="0.1" fill-rule="evenodd" clip-rule="evenodd" d="M79.7264 54.4121C79.5062 53.3297 78.4502 52.6308 77.3678 52.851C76.2854 53.0712 75.5865 54.1272 75.8067 55.2096L77.601 64.0289C77.8212 65.1113 78.8772 65.8102 79.9596 65.59C81.042 65.3698 81.7409 64.3138 81.5207 63.2314L79.7264 54.4121ZM70.9983 54.1469C72.0807 53.9267 73.1367 54.6256 73.3569 55.708L76.148 69.4269C76.3683 70.5093 75.6693 71.5653 74.5869 71.7855C73.5045 72.0057 72.4486 71.3068 72.2284 70.2244L69.4372 56.5055C69.217 55.4231 69.9159 54.3671 70.9983 54.1469ZM66.9874 57.0039C66.7672 55.9215 65.7112 55.2226 64.6288 55.4428C63.5464 55.663 62.8475 56.719 63.0677 57.8014L66.5566 74.9501C66.7768 76.0324 67.8328 76.7314 68.9152 76.5112C69.9976 76.2909 70.6965 75.235 70.4763 74.1526L66.9874 57.0039ZM58.2593 56.7387C59.3417 56.5185 60.3977 57.2174 60.6179 58.2998L64.8046 78.8782C65.0248 79.9606 64.3259 81.0166 63.2435 81.2368C62.1611 81.457 61.1051 80.7581 60.8849 79.6757L56.6982 59.0973C56.478 58.0149 57.1769 56.9589 58.2593 56.7387ZM54.2484 59.5957C54.0282 58.5133 52.9722 57.8144 51.8898 58.0346C50.8074 58.2548 50.1085 59.3108 50.3287 60.3932L54.5154 80.9716C54.7356 82.054 55.7916 82.7529 56.874 82.5327C57.9564 82.3125 58.6553 81.2565 58.4351 80.1741L54.2484 59.5957ZM45.5203 59.3305C46.6027 59.1103 47.6587 59.8092 47.8789 60.8916L52.0656 81.47C52.2858 82.5524 51.5869 83.6084 50.5045 83.8286C49.4221 84.0488 48.3661 83.3499 48.1459 82.2675L43.9592 61.6891C43.739 60.6067 44.4379 59.5507 45.5203 59.3305ZM41.5094 62.1875C41.2891 61.1051 40.2332 60.4062 39.1508 60.6264C38.0684 60.8466 37.3694 61.9026 37.5897 62.985L41.0786 80.1336C41.2988 81.216 42.3548 81.915 43.4372 81.6948C44.5196 81.4745 45.2185 80.4186 44.9983 79.3362L41.5094 62.1875ZM32.7813 61.9223C33.8637 61.7021 34.9196 62.401 35.1399 63.4834L37.931 77.2023C38.1512 78.2847 37.4523 79.3407 36.3699 79.5609C35.2875 79.7811 34.2315 79.0822 34.0113 77.9998L31.2202 64.2809C30.9999 63.1985 31.6989 62.1425 32.7813 61.9223ZM26.4118 63.2182C27.4942 62.998 28.5501 63.6969 28.7703 64.7793L30.5647 73.5986C30.7849 74.681 30.0859 75.737 29.0035 75.9572C27.9212 76.1774 26.8652 75.4785 26.645 74.3961L24.8507 65.5768C24.6304 64.4944 25.3294 63.4384 26.4118 63.2182Z" fill="#036C4E"/>
<path fill-rule="evenodd" clip-rule="evenodd" d="M73.45 46.6972C79.5149 45.4633 83.4313 39.5464 82.1973 33.4814C80.9634 27.4165 75.0465 23.5002 68.9816 24.7341C62.9166 25.968 59.0003 31.8849 60.2342 37.9499C61.4681 44.0148 67.3851 47.9311 73.45 46.6972Z" fill="#FEFEFF" stroke="#295449" stroke-width="4" stroke-linecap="round"/>
<path fill-rule="evenodd" clip-rule="evenodd" d="M71.1339 46.5139C75.0576 45.7156 77.5912 41.8877 76.793 37.964C75.9947 34.0404 72.1668 31.5067 68.2431 32.305C64.3194 33.1033 61.7858 36.9312 62.5841 40.8549C63.3823 44.7786 67.2102 47.3122 71.1339 46.5139Z" fill="#295449"/>
<path fill-rule="evenodd" clip-rule="evenodd" d="M40.8166 51.3055C43.3104 48.7691 44.5391 45.0786 43.7766 41.3309C42.5579 35.3407 36.7139 31.4726 30.7237 32.6914C24.7336 33.9101 20.8655 39.754 22.0842 45.7442C22.9339 49.9204 26.0317 53.0652 29.8598 54.1738" fill="#FAF7FF"/>
<path d="M40.8166 51.3055C43.3104 48.7691 44.5391 45.0786 43.7766 41.3309C42.5579 35.3407 36.7139 31.4726 30.7237 32.6914C24.7336 33.9101 20.8655 39.754 22.0842 45.7442C22.9339 49.9204 26.0317 53.0652 29.8598 54.1738" stroke="#295449" stroke-width="4" stroke-linecap="round"/>
<path d="M43.0178 52.6338C43.0178 52.6338 39.0408 52.0888 35.5 53C31.9592 53.9112 29 57 29 57" stroke="#295449" stroke-width="4" stroke-linecap="round" stroke-linejoin="round"/>
<path fill-rule="evenodd" clip-rule="evenodd" d="M34.4953 54.6544C38.419 53.8561 40.9526 50.0282 40.1543 46.1045C39.356 42.1808 35.5281 39.6472 31.6045 40.4455C27.6808 41.2437 25.1471 45.0716 25.9454 48.9953C26.7437 52.919 30.5716 55.4526 34.4953 54.6544Z" fill="#295449"/>
<defs>
<filter id="filter0_d" x="5.45581" y="5.95581" width="89.0884" height="89.0884" filterUnits="userSpaceOnUse" color-interpolation-filters="sRGB">
<feFlood flood-opacity="0" result="BackgroundImageFix"/>
<feColorMatrix in="SourceAlpha" type="matrix" values="0 0 0 0 0 0 0 0 0 0 0 0 0 0 0 0 0 0 127 0"/>
<feOffset dy="0.5"/>
<feGaussianBlur stdDeviation="0.75"/>
<feColorMatrix type="matrix" values="0 0 0 0 0 0 0 0 0 0 0 0 0 0 0 0 0 0 0.11 0"/>
<feBlend mode="normal" in2="BackgroundImageFix" result="effect1_dropShadow"/>
<feBlend mode="normal" in="SourceGraphic" in2="effect1_dropShadow" result="shape"/>
</filter>
</defs>
</svg>
