<svg width="207" height="61" viewBox="0 0 207 61" fill="none" xmlns="http://www.w3.org/2000/svg">
<rect width="207" height="61" rx="7" fill="#D50004"/>
<path d="M24.4519 41.3747C21.3776 41.3747 18.9758 40.5485 17.2465 38.896C15.5173 37.2436 14.6526 34.9091 14.6526 31.8925C14.6526 29.8365 15.0561 28.0208 15.8631 26.4452C16.6893 24.8697 17.8518 23.6592 19.3505 22.8137C20.8492 21.9491 22.5785 21.5168 24.5383 21.5168C26.1331 21.5168 27.6702 21.805 29.1497 22.3814L28.3716 26.0994C27.065 25.5037 25.7969 25.2059 24.5672 25.2059C22.8187 25.2059 21.4352 25.7823 20.4169 26.9352C19.3985 28.0688 18.8893 29.5868 18.8893 31.489C18.8893 33.4296 19.4273 34.9379 20.5033 36.0139C21.5793 37.0899 23.0684 37.6279 24.9706 37.6279C26.2196 37.6279 27.4301 37.4262 28.6021 37.0227L29.2362 40.5677C27.8336 41.1057 26.2388 41.3747 24.4519 41.3747ZM41.515 41.3747C39.632 41.3747 37.97 40.9616 36.5289 40.1354C35.0878 39.3091 33.9638 38.1467 33.1568 36.648C32.369 35.1493 31.9751 33.4296 31.9751 31.489C31.9751 29.5291 32.369 27.7998 33.1568 26.3011C33.9446 24.8024 35.059 23.64 36.5001 22.8137C37.9411 21.9875 39.6128 21.5744 41.515 21.5744C43.398 21.5744 45.06 21.9875 46.5011 22.8137C47.9421 23.6207 49.0566 24.764 49.8444 26.2435C50.6321 27.723 51.026 29.433 51.026 31.3737C51.026 33.3527 50.6321 35.1012 49.8444 36.6192C49.0566 38.1179 47.9421 39.2899 46.5011 40.1354C45.06 40.9616 43.398 41.3747 41.515 41.3747ZM41.515 37.7144C43.0906 37.7144 44.3491 37.1475 45.2906 36.0139C46.2513 34.8803 46.7317 33.372 46.7317 31.489C46.7317 30.2593 46.5107 29.1736 46.0688 28.2322C45.6461 27.2714 45.0312 26.5413 44.2242 26.0417C43.4364 25.5229 42.5333 25.2636 41.515 25.2636C40.4966 25.2636 39.584 25.5229 38.777 26.0417C37.9892 26.5413 37.3743 27.2714 36.9324 28.2322C36.5097 29.1736 36.2983 30.2593 36.2983 31.489C36.2983 32.7187 36.5097 33.8043 36.9324 34.7458C37.3743 35.6873 37.9892 36.4174 38.777 36.9362C39.5648 37.455 40.4774 37.7144 41.515 37.7144ZM54.7789 21.805H59.6785L67.6332 35.2646V21.805H71.4664V41H66.6245L58.6121 27.454V41H54.7789V21.805ZM80.1633 25.4365H74.9178V21.805H89.559V25.4365H84.3712V41H80.1633V25.4365ZM96.3588 21.805H101.374L108.493 41H104.169L102.613 36.6192H95.0619L93.592 41H89.3264L96.3588 21.805ZM101.374 33.0453L98.7798 25.6959L96.2724 33.0453H101.374ZM119.821 41.3747C116.747 41.3747 114.345 40.5485 112.616 38.896C110.887 37.2436 110.022 34.9091 110.022 31.8925C110.022 29.8365 110.425 28.0208 111.232 26.4452C112.059 24.8697 113.221 23.6592 114.72 22.8137C116.219 21.9491 117.948 21.5168 119.908 21.5168C121.502 21.5168 123.04 21.805 124.519 22.3814L123.741 26.0994C122.434 25.5037 121.166 25.2059 119.936 25.2059C118.188 25.2059 116.805 25.7823 115.786 26.9352C114.768 28.0688 114.259 29.5868 114.259 31.489C114.259 33.4296 114.797 34.9379 115.873 36.0139C116.949 37.0899 118.438 37.6279 120.34 37.6279C121.589 37.6279 122.799 37.4262 123.971 37.0227L124.606 40.5677C123.203 41.1057 121.608 41.3747 119.821 41.3747ZM132.639 25.4365H127.394V21.805H142.035V25.4365H136.847V41H132.639V25.4365ZM156.058 27.454L154.848 41H151.13L152.946 21.805H158.134L163.033 35.5816L167.789 21.805H172.977L174.735 41H170.988L169.662 27.5116L164.589 41.2017L161.16 41.5188L156.058 27.454ZM178.687 21.805H190.36V25.4365H182.808V29.2697H189.063V32.7859H182.808V37.3685H190.36V41H178.687V21.805Z" fill="#FFED94"/>
</svg>
