<svg width="412" height="205" viewBox="0 0 412 205" fill="none" xmlns="http://www.w3.org/2000/svg">
<mask id="path-1-outside-1" maskUnits="userSpaceOnUse" x="0.498047" y="0.929565" width="412" height="204" fill="black">
<rect fill="white" x="0.498047" y="0.929565" width="412" height="204"/>
<path fill-rule="evenodd" clip-rule="evenodd" d="M361.556 80.7416C359.355 80.549 357.415 82.177 357.222 84.3777L356.775 89.4905C356.582 91.6912 358.21 93.6313 360.411 93.8239L362.466 94.0037L362.371 95.0871C362.179 97.2879 363.807 99.228 366.008 99.4205L392.96 101.779C395.161 101.971 397.101 100.343 397.294 98.1424L397.741 93.0297C397.933 90.829 396.305 88.8888 394.105 88.6963L392.235 88.5328C392.173 88.5273 392.111 88.5205 392.05 88.5123L392.144 87.433C392.331 85.2946 390.8 83.4022 388.694 83.1202L393.663 26.3251C393.855 24.1243 392.227 22.1842 390.026 21.9917L387.971 21.8119L388.066 20.7284C388.259 18.5277 386.631 16.5875 384.43 16.395L367.857 14.945C365.656 14.7525 363.716 16.3805 363.523 18.5812L363.086 23.5858C362.893 25.7865 364.521 27.7266 366.722 27.9192L368.05 28.0354C368.298 28.0571 368.539 28.1011 368.771 28.1651L368.682 29.1825C368.511 31.1351 369.774 32.8826 371.597 33.3862L367.758 77.269C367.566 79.4697 365.626 81.0977 363.425 80.9051L361.556 80.7416ZM163.348 16.5177C161.147 16.7103 159.52 18.6504 159.712 20.8511L160.245 26.9369C160.437 29.1377 162.377 30.7656 164.578 30.5731L165.665 30.478L165.845 32.5339C166.037 34.7346 167.978 36.3625 170.178 36.17L179.616 35.3443C181.816 35.1518 183.444 33.2117 183.252 31.0109L182.719 24.9252C182.527 22.7244 180.587 21.0965 178.386 21.289L177.299 21.3841L177.119 19.3282C176.927 17.1275 174.986 15.4995 172.786 15.6921L163.348 16.5177ZM20.4267 97.5243L18.8495 97.6623C16.0801 97.9046 13.9142 95.3178 14.6394 92.6341L32.4978 26.5445C32.9357 24.9241 34.3386 23.7495 36.0107 23.6032L49.2672 22.4434C50.9335 22.2976 52.5146 23.204 53.2307 24.7157L54.8079 28.0449L54.8636 28.0401C56.53 27.8943 58.111 28.8007 58.8272 30.3124L88.1791 92.2716C89.3722 94.7899 87.6889 97.726 84.9129 97.9688L77.2361 98.6405C75.5497 98.788 73.9529 97.8579 73.2493 96.3182L71.7487 93.0342L71.6397 93.0438C69.9532 93.1913 68.3565 92.2612 67.6529 90.7215L64.2247 83.2191L41.686 85.191C39.9738 85.3408 38.5486 86.5677 38.146 88.2387L35.4177 99.5611C35.015 101.232 33.5899 102.459 31.8776 102.609L24.4459 103.259C21.6766 103.501 19.5106 100.914 20.2358 98.2308L20.4267 97.5243ZM43.7203 65.4174L50.0963 64.8596C52.8456 64.6191 54.5311 61.7324 53.3893 59.2199L49.8444 51.4198C48.3082 51.598 46.87 52.6311 46.4254 54.436L43.7203 65.4174ZM139.514 45.1147C139.956 45.6651 140.361 46.2414 140.729 46.8438C142.422 47.8632 143.882 49.1524 145.11 50.7113C148.189 54.5395 149.451 59.625 148.896 65.968L146.009 98.9596C145.817 101.16 143.877 102.788 141.676 102.596L134.401 101.959C132.2 101.767 130.572 99.8266 130.765 97.6258L130.86 96.5425L128.804 96.3627C126.604 96.1702 124.976 94.23 125.168 92.0293L127.847 61.4163C127.98 59.8914 127.896 58.5304 127.594 57.3332C127.166 57.2341 126.717 57.164 126.246 57.1229C123.363 56.8706 120.53 57.7122 117.746 59.6475C115.167 61.4398 113.071 63.7725 111.457 66.6459C111.201 67.1027 111.057 67.6128 111.011 68.1348L108.601 95.6867C108.408 97.8875 106.468 99.5154 104.267 99.3229L96.9921 98.6864C94.7914 98.4939 93.1634 96.5537 93.3559 94.353L93.4507 93.2696L91.3956 93.0898C89.1949 92.8973 87.5669 90.9572 87.7595 88.7564L91.9337 41.0452C92.1262 38.8445 94.0663 37.2165 96.2671 37.4091L105.107 38.1824C106.264 38.2837 107.12 39.3042 107.019 40.4617C106.833 42.5845 109.852 43.824 111.526 42.5058C112.676 41.5999 113.867 40.8496 115.099 40.2551C118.284 38.7179 121.895 38.126 125.931 38.4791C131.914 39.0025 136.441 41.2144 139.514 45.1147ZM166.717 78.5553L165.012 59.0645L163.689 59.1802C161.488 59.3728 159.548 57.7448 159.356 55.5441L159.176 53.4882L158.089 53.5833C155.888 53.7758 153.948 52.1479 153.755 49.9471L153.308 44.8344C153.115 42.6337 154.743 40.6936 156.944 40.501L174.599 38.9565C176.799 38.7639 178.739 40.3919 178.932 42.5926L179.112 44.6485L180.199 44.5534C182.4 44.3608 184.34 45.9888 184.532 48.1895L187.382 80.7626L187.624 80.7415C189.824 80.5489 191.764 82.1769 191.957 84.3776L192.137 86.4335L193.224 86.3384C195.425 86.1459 197.365 87.7738 197.557 89.9745L198.005 95.0873C198.197 97.288 196.569 99.2281 194.369 99.4207L167.416 101.779C165.215 101.971 163.275 100.343 163.083 98.1426L162.903 96.0867L161.816 96.1818C159.615 96.3743 157.675 94.7464 157.482 92.5456L157.035 87.4329C156.842 85.2322 158.47 83.2921 160.671 83.0995L163.081 82.8887C165.282 82.6962 166.91 80.756 166.717 78.5553ZM286.251 48.3528C285.893 47.7708 285.499 47.2132 285.07 46.68C282.069 42.786 277.578 40.5772 271.596 40.0539C267.56 39.7008 263.873 40.3224 260.538 41.919C259.318 42.4926 258.124 43.2215 256.958 44.1057C254.326 46.1017 249.819 45.2526 247.614 42.7927C246.973 42.0771 246.265 41.4196 245.491 40.8204C242.713 38.5437 239.196 37.2192 234.944 36.8472C229.652 36.3842 224.984 37.6774 220.941 40.7269C219.364 41.9162 216.627 40.7434 216.799 38.7759C216.895 37.6847 216.088 36.7227 214.996 36.6273L206.037 35.8434C203.836 35.6509 201.896 37.2788 201.703 39.4795L197.529 87.1908C197.336 89.3915 198.964 91.3316 201.165 91.5242L203.22 91.704L203.125 92.7873C202.933 94.9881 204.561 96.9282 206.762 97.1207L214.037 97.7572C216.237 97.9498 218.178 96.3218 218.37 94.1211L220.792 66.4376C220.836 65.9308 220.974 65.4355 221.215 64.9872C222.899 61.8487 224.898 59.4654 227.21 57.8372C229.765 56.0271 232.375 55.2387 235.043 55.472C235.466 55.509 235.871 55.5709 236.26 55.6578C236.576 56.8746 236.668 58.2407 236.535 59.756L233.857 90.369C233.664 92.5698 235.292 94.5099 237.493 94.7024L239.548 94.8822L239.453 95.9656C239.261 98.1663 240.889 100.106 243.089 100.299L250.364 100.935C252.565 101.128 254.505 99.5 254.698 97.2993L256.981 71.2017C257.017 70.7888 257.115 70.3828 257.284 70.0042C258.82 66.558 260.887 63.778 263.481 61.6642C266.217 59.4341 269.064 58.4486 272.019 58.7071C272.41 58.7412 272.785 58.7966 273.144 58.8731C273.451 60.0764 273.538 61.4459 273.403 62.9816L270.725 93.5946C270.532 95.7953 272.16 97.7354 274.361 97.928L276.416 98.1078L276.321 99.1911C276.129 101.392 277.757 103.332 279.957 103.525L287.233 104.161C289.433 104.354 291.373 102.726 291.566 100.525L294.452 67.5333C295.007 61.1903 293.745 56.1048 290.667 52.2765C289.443 50.6883 287.971 49.3803 286.251 48.3528ZM312.414 96.6307C316.23 101.236 321.021 103.286 326.788 102.781C330.175 102.485 333.124 101.319 335.634 99.2839C337.473 97.8291 339.057 95.9909 340.387 93.7693C340.681 93.8103 340.984 93.8191 341.293 93.7921L342.449 93.691L342.546 95.6066C342.661 97.8701 344.631 99.5862 346.889 99.3886L353.259 98.8314C355.46 98.6388 357.088 96.6987 356.895 94.498L352.743 47.0391C352.581 45.19 351.169 43.6875 349.326 43.4669C348.643 43.3851 347.969 43.3104 347.304 43.2426L347.147 41.4426C346.985 39.5934 345.572 38.091 343.729 37.8703C337.54 37.1294 332.096 36.9645 327.398 37.3755C317.668 38.2268 310.444 41.5824 305.728 47.4424C301.004 53.2302 299.091 61.2417 299.986 71.4769C300.724 79.9101 303 86.4293 306.818 91.0341C308.129 92.6165 309.555 93.8973 311.097 94.8764C311.513 95.4891 311.952 96.0739 312.414 96.6307ZM320.23 75.1383C320.523 78.4943 321.127 81.3075 322.039 83.5779C322.437 83.6315 322.848 83.6397 323.272 83.6026C325.505 83.4072 327.601 82.0255 329.555 79.4577C331.375 77.0664 333.009 73.9986 334.459 70.254C334.673 69.7024 334.75 69.108 334.699 68.5187L333.637 56.3864C333.016 56.3939 332.397 56.4247 331.78 56.4786C327.455 56.857 324.304 58.6217 322.329 61.7723C320.425 64.9166 319.725 69.3721 320.23 75.1383ZM111.052 118.209L110.872 116.153C110.679 113.953 108.739 112.325 106.538 112.517L98.8309 113.191C96.6302 113.384 95.0022 115.324 95.1947 117.525L100.797 181.562C100.99 183.763 102.93 185.391 105.131 185.198L106.214 185.103L106.394 187.159C106.586 189.359 108.526 190.987 110.727 190.795L118.435 190.12C120.635 189.928 122.263 187.988 122.071 185.787L120.928 172.726C120.655 169.605 123.746 167.668 126.287 168.602L137.111 180.781C137.55 181.275 138.099 181.646 138.702 181.871L142.707 186.377C143.548 187.323 144.786 187.815 146.046 187.705L155.148 186.908C158.423 186.622 159.973 182.726 157.79 180.268L146.046 148.232C144.8 146.829 132.434 149.751 133.535 148.232L153.144 121.172C155.156 118.396 152.971 114.541 149.556 114.84L147.906 114.984C149.251 112.285 147.138 108.965 143.96 109.243L135.84 109.954C134.664 110.056 133.593 110.674 132.915 111.64L119.266 131.084C118.763 131.801 118.115 132.278 117.412 132.542L116.468 121.75C116.276 119.549 114.336 117.921 112.135 118.114L111.052 118.209ZM191.174 108.795L191.079 109.878L193.135 110.058C195.336 110.251 196.964 112.191 196.771 114.391L196.239 120.477C196.046 122.678 194.106 124.306 191.905 124.113L182.466 123.288C180.265 123.095 178.638 121.155 178.83 118.954L178.925 117.871L176.869 117.691C174.669 117.499 173.041 115.559 173.233 113.358L173.766 107.272C173.958 105.071 175.898 103.443 178.099 103.636L187.538 104.462C189.739 104.654 191.367 106.594 191.174 108.795ZM172.44 144.853L170.649 165.316C170.457 167.517 168.517 169.145 166.316 168.953L163.906 168.742C161.706 168.549 159.765 170.177 159.573 172.378L159.126 177.491C158.933 179.691 160.561 181.632 162.762 181.824L164.817 182.004L164.722 183.087C164.53 185.288 166.158 187.228 168.358 187.42L195.311 189.778C197.512 189.971 199.452 188.343 199.644 186.142L200.092 181.03C200.284 178.829 198.656 176.889 196.456 176.696L195.127 176.58C194.879 176.558 194.638 176.514 194.406 176.45L194.495 175.433C194.666 173.481 193.404 171.733 191.58 171.23L194.52 137.618C194.713 135.417 193.085 133.477 190.884 133.284L188.829 133.104L188.924 132.021C189.116 129.821 187.488 127.88 185.288 127.688L167.633 126.143C165.432 125.951 163.492 127.579 163.3 129.779L162.852 134.892C162.66 137.093 164.288 139.033 166.489 139.226L168.544 139.405L168.449 140.489C168.257 142.689 169.885 144.629 172.085 144.822L172.44 144.853ZM217.474 184.862C221.493 189.304 226.64 191.251 232.91 190.702C236.37 190.399 239.367 189.375 241.902 187.628C244.132 186.127 246.002 184.153 247.512 181.704L248.728 181.598L248.831 184.025C248.916 186.007 250.636 187.517 252.612 187.344L259.814 186.714C262.014 186.522 263.642 184.582 263.45 182.381L257.242 111.424C257.049 109.224 255.109 107.596 252.908 107.788L251.825 107.883L251.645 105.828C251.453 103.627 249.512 101.999 247.312 102.192L240.253 102.809C238.052 103.002 218.178 107.857 218.37 110.058L237.819 120.88C238.019 123.172 236.247 125.141 233.95 125.279C233.46 125.308 233.029 125.339 232.655 125.372C222.852 126.23 215.523 129.631 210.669 135.575C205.88 141.442 203.931 149.456 204.82 159.619C205.57 168.197 207.922 174.745 211.877 179.266C213.051 180.563 214.321 181.647 215.687 182.519C216.241 183.353 216.836 184.134 217.474 184.862ZM225.586 163.017C225.876 166.333 226.494 169.113 227.44 171.358C228.127 171.522 228.85 171.571 229.61 171.504C231.916 171.303 234.066 170.134 236.058 167.999C237.897 165.955 239.488 163.216 240.832 159.783C241.046 159.235 241.122 158.642 241.071 158.056L239.868 144.309C239.201 144.313 238.546 144.343 237.902 144.399C233.361 144.797 230.03 146.577 227.91 149.74C225.861 152.897 225.087 157.323 225.586 163.017ZM288.135 190.062C284.602 189.753 281.211 189.094 277.958 188.083C275.831 187.411 273.923 186.644 272.235 185.784C270.79 185.047 270.108 183.411 270.406 181.819C269.048 181.319 267.792 180.775 266.639 180.187C265.182 179.444 264.5 177.786 264.817 176.182L265.603 172.208C266.173 169.322 269.602 167.981 272.237 169.288C273.009 169.671 273.803 170.033 274.62 170.373C277.493 171.568 280.227 172.28 282.822 172.507C285.273 172.721 287.365 172.468 289.098 171.748C290.838 170.956 291.784 169.696 291.935 167.966C291.939 167.92 291.942 167.874 291.945 167.828C291.276 167.496 290.54 167.147 289.736 166.779L286.911 165.443C283.912 164.018 281.485 162.716 279.627 161.537C277.853 160.338 276.289 158.658 274.932 156.496C274.618 156.308 274.318 156.123 274.031 155.94C272.179 154.689 270.556 152.913 269.158 150.612C267.761 148.31 267.218 145.394 267.527 141.862C268.019 136.24 270.49 132.062 274.942 129.329C279.472 126.529 285.125 125.426 291.901 126.019C296.276 126.401 300.784 127.505 305.425 129.328C307.182 130.019 308.111 131.904 307.711 133.739C308.807 134.093 309.911 134.488 311.021 134.925C312.818 135.631 313.748 137.586 313.279 139.459L312.333 143.234C311.648 145.965 308.387 147.189 305.802 146.074C305.228 145.827 304.637 145.592 304.029 145.369C301.504 144.349 299.087 143.738 296.781 143.537C294.402 143.328 292.457 143.558 290.947 144.224C289.507 144.897 288.722 145.991 288.59 147.505C288.586 147.545 288.583 147.585 288.581 147.625C289.043 147.843 289.537 148.068 290.06 148.3C292.153 149.282 293.374 149.861 293.721 150.037C296.642 151.527 299.06 152.937 300.978 154.267C302.653 155.429 304.096 157.013 305.309 159.021C305.752 159.305 306.174 159.586 306.574 159.864C308.492 161.193 310.106 163.078 311.418 165.517C312.736 167.884 313.24 170.833 312.931 174.365C312.414 180.275 309.9 184.522 305.389 187.105C300.878 189.688 295.127 190.674 288.135 190.062Z"/>
</mask>
<path fill-rule="evenodd" clip-rule="evenodd" d="M361.556 80.7416C359.355 80.549 357.415 82.177 357.222 84.3777L356.775 89.4905C356.582 91.6912 358.21 93.6313 360.411 93.8239L362.466 94.0037L362.371 95.0871C362.179 97.2879 363.807 99.228 366.008 99.4205L392.96 101.779C395.161 101.971 397.101 100.343 397.294 98.1424L397.741 93.0297C397.933 90.829 396.305 88.8888 394.105 88.6963L392.235 88.5328C392.173 88.5273 392.111 88.5205 392.05 88.5123L392.144 87.433C392.331 85.2946 390.8 83.4022 388.694 83.1202L393.663 26.3251C393.855 24.1243 392.227 22.1842 390.026 21.9917L387.971 21.8119L388.066 20.7284C388.259 18.5277 386.631 16.5875 384.43 16.395L367.857 14.945C365.656 14.7525 363.716 16.3805 363.523 18.5812L363.086 23.5858C362.893 25.7865 364.521 27.7266 366.722 27.9192L368.05 28.0354C368.298 28.0571 368.539 28.1011 368.771 28.1651L368.682 29.1825C368.511 31.1351 369.774 32.8826 371.597 33.3862L367.758 77.269C367.566 79.4697 365.626 81.0977 363.425 80.9051L361.556 80.7416ZM163.348 16.5177C161.147 16.7103 159.52 18.6504 159.712 20.8511L160.245 26.9369C160.437 29.1377 162.377 30.7656 164.578 30.5731L165.665 30.478L165.845 32.5339C166.037 34.7346 167.978 36.3625 170.178 36.17L179.616 35.3443C181.816 35.1518 183.444 33.2117 183.252 31.0109L182.719 24.9252C182.527 22.7244 180.587 21.0965 178.386 21.289L177.299 21.3841L177.119 19.3282C176.927 17.1275 174.986 15.4995 172.786 15.6921L163.348 16.5177ZM20.4267 97.5243L18.8495 97.6623C16.0801 97.9046 13.9142 95.3178 14.6394 92.6341L32.4978 26.5445C32.9357 24.9241 34.3386 23.7495 36.0107 23.6032L49.2672 22.4434C50.9335 22.2976 52.5146 23.204 53.2307 24.7157L54.8079 28.0449L54.8636 28.0401C56.53 27.8943 58.111 28.8007 58.8272 30.3124L88.1791 92.2716C89.3722 94.7899 87.6889 97.726 84.9129 97.9688L77.2361 98.6405C75.5497 98.788 73.9529 97.8579 73.2493 96.3182L71.7487 93.0342L71.6397 93.0438C69.9532 93.1913 68.3565 92.2612 67.6529 90.7215L64.2247 83.2191L41.686 85.191C39.9738 85.3408 38.5486 86.5677 38.146 88.2387L35.4177 99.5611C35.015 101.232 33.5899 102.459 31.8776 102.609L24.4459 103.259C21.6766 103.501 19.5106 100.914 20.2358 98.2308L20.4267 97.5243ZM43.7203 65.4174L50.0963 64.8596C52.8456 64.6191 54.5311 61.7324 53.3893 59.2199L49.8444 51.4198C48.3082 51.598 46.87 52.6311 46.4254 54.436L43.7203 65.4174ZM139.514 45.1147C139.956 45.6651 140.361 46.2414 140.729 46.8438C142.422 47.8632 143.882 49.1524 145.11 50.7113C148.189 54.5395 149.451 59.625 148.896 65.968L146.009 98.9596C145.817 101.16 143.877 102.788 141.676 102.596L134.401 101.959C132.2 101.767 130.572 99.8266 130.765 97.6258L130.86 96.5425L128.804 96.3627C126.604 96.1702 124.976 94.23 125.168 92.0293L127.847 61.4163C127.98 59.8914 127.896 58.5304 127.594 57.3332C127.166 57.2341 126.717 57.164 126.246 57.1229C123.363 56.8706 120.53 57.7122 117.746 59.6475C115.167 61.4398 113.071 63.7725 111.457 66.6459C111.201 67.1027 111.057 67.6128 111.011 68.1348L108.601 95.6867C108.408 97.8875 106.468 99.5154 104.267 99.3229L96.9921 98.6864C94.7914 98.4939 93.1634 96.5537 93.3559 94.353L93.4507 93.2696L91.3956 93.0898C89.1949 92.8973 87.5669 90.9572 87.7595 88.7564L91.9337 41.0452C92.1262 38.8445 94.0663 37.2165 96.2671 37.4091L105.107 38.1824C106.264 38.2837 107.12 39.3042 107.019 40.4617C106.833 42.5845 109.852 43.824 111.526 42.5058C112.676 41.5999 113.867 40.8496 115.099 40.2551C118.284 38.7179 121.895 38.126 125.931 38.4791C131.914 39.0025 136.441 41.2144 139.514 45.1147ZM166.717 78.5553L165.012 59.0645L163.689 59.1802C161.488 59.3728 159.548 57.7448 159.356 55.5441L159.176 53.4882L158.089 53.5833C155.888 53.7758 153.948 52.1479 153.755 49.9471L153.308 44.8344C153.115 42.6337 154.743 40.6936 156.944 40.501L174.599 38.9565C176.799 38.7639 178.739 40.3919 178.932 42.5926L179.112 44.6485L180.199 44.5534C182.4 44.3608 184.34 45.9888 184.532 48.1895L187.382 80.7626L187.624 80.7415C189.824 80.5489 191.764 82.1769 191.957 84.3776L192.137 86.4335L193.224 86.3384C195.425 86.1459 197.365 87.7738 197.557 89.9745L198.005 95.0873C198.197 97.288 196.569 99.2281 194.369 99.4207L167.416 101.779C165.215 101.971 163.275 100.343 163.083 98.1426L162.903 96.0867L161.816 96.1818C159.615 96.3743 157.675 94.7464 157.482 92.5456L157.035 87.4329C156.842 85.2322 158.47 83.2921 160.671 83.0995L163.081 82.8887C165.282 82.6962 166.91 80.756 166.717 78.5553ZM286.251 48.3528C285.893 47.7708 285.499 47.2132 285.07 46.68C282.069 42.786 277.578 40.5772 271.596 40.0539C267.56 39.7008 263.873 40.3224 260.538 41.919C259.318 42.4926 258.124 43.2215 256.958 44.1057C254.326 46.1017 249.819 45.2526 247.614 42.7927C246.973 42.0771 246.265 41.4196 245.491 40.8204C242.713 38.5437 239.196 37.2192 234.944 36.8472C229.652 36.3842 224.984 37.6774 220.941 40.7269C219.364 41.9162 216.627 40.7434 216.799 38.7759C216.895 37.6847 216.088 36.7227 214.996 36.6273L206.037 35.8434C203.836 35.6509 201.896 37.2788 201.703 39.4795L197.529 87.1908C197.336 89.3915 198.964 91.3316 201.165 91.5242L203.22 91.704L203.125 92.7873C202.933 94.9881 204.561 96.9282 206.762 97.1207L214.037 97.7572C216.237 97.9498 218.178 96.3218 218.37 94.1211L220.792 66.4376C220.836 65.9308 220.974 65.4355 221.215 64.9872C222.899 61.8487 224.898 59.4654 227.21 57.8372C229.765 56.0271 232.375 55.2387 235.043 55.472C235.466 55.509 235.871 55.5709 236.26 55.6578C236.576 56.8746 236.668 58.2407 236.535 59.756L233.857 90.369C233.664 92.5698 235.292 94.5099 237.493 94.7024L239.548 94.8822L239.453 95.9656C239.261 98.1663 240.889 100.106 243.089 100.299L250.364 100.935C252.565 101.128 254.505 99.5 254.698 97.2993L256.981 71.2017C257.017 70.7888 257.115 70.3828 257.284 70.0042C258.82 66.558 260.887 63.778 263.481 61.6642C266.217 59.4341 269.064 58.4486 272.019 58.7071C272.41 58.7412 272.785 58.7966 273.144 58.8731C273.451 60.0764 273.538 61.4459 273.403 62.9816L270.725 93.5946C270.532 95.7953 272.16 97.7354 274.361 97.928L276.416 98.1078L276.321 99.1911C276.129 101.392 277.757 103.332 279.957 103.525L287.233 104.161C289.433 104.354 291.373 102.726 291.566 100.525L294.452 67.5333C295.007 61.1903 293.745 56.1048 290.667 52.2765C289.443 50.6883 287.971 49.3803 286.251 48.3528ZM312.414 96.6307C316.23 101.236 321.021 103.286 326.788 102.781C330.175 102.485 333.124 101.319 335.634 99.2839C337.473 97.8291 339.057 95.9909 340.387 93.7693C340.681 93.8103 340.984 93.8191 341.293 93.7921L342.449 93.691L342.546 95.6066C342.661 97.8701 344.631 99.5862 346.889 99.3886L353.259 98.8314C355.46 98.6388 357.088 96.6987 356.895 94.498L352.743 47.0391C352.581 45.19 351.169 43.6875 349.326 43.4669C348.643 43.3851 347.969 43.3104 347.304 43.2426L347.147 41.4426C346.985 39.5934 345.572 38.091 343.729 37.8703C337.54 37.1294 332.096 36.9645 327.398 37.3755C317.668 38.2268 310.444 41.5824 305.728 47.4424C301.004 53.2302 299.091 61.2417 299.986 71.4769C300.724 79.9101 303 86.4293 306.818 91.0341C308.129 92.6165 309.555 93.8973 311.097 94.8764C311.513 95.4891 311.952 96.0739 312.414 96.6307ZM320.23 75.1383C320.523 78.4943 321.127 81.3075 322.039 83.5779C322.437 83.6315 322.848 83.6397 323.272 83.6026C325.505 83.4072 327.601 82.0255 329.555 79.4577C331.375 77.0664 333.009 73.9986 334.459 70.254C334.673 69.7024 334.75 69.108 334.699 68.5187L333.637 56.3864C333.016 56.3939 332.397 56.4247 331.78 56.4786C327.455 56.857 324.304 58.6217 322.329 61.7723C320.425 64.9166 319.725 69.3721 320.23 75.1383ZM111.052 118.209L110.872 116.153C110.679 113.953 108.739 112.325 106.538 112.517L98.8309 113.191C96.6302 113.384 95.0022 115.324 95.1947 117.525L100.797 181.562C100.99 183.763 102.93 185.391 105.131 185.198L106.214 185.103L106.394 187.159C106.586 189.359 108.526 190.987 110.727 190.795L118.435 190.12C120.635 189.928 122.263 187.988 122.071 185.787L120.928 172.726C120.655 169.605 123.746 167.668 126.287 168.602L137.111 180.781C137.55 181.275 138.099 181.646 138.702 181.871L142.707 186.377C143.548 187.323 144.786 187.815 146.046 187.705L155.148 186.908C158.423 186.622 159.973 182.726 157.79 180.268L146.046 148.232C144.8 146.829 132.434 149.751 133.535 148.232L153.144 121.172C155.156 118.396 152.971 114.541 149.556 114.84L147.906 114.984C149.251 112.285 147.138 108.965 143.96 109.243L135.84 109.954C134.664 110.056 133.593 110.674 132.915 111.64L119.266 131.084C118.763 131.801 118.115 132.278 117.412 132.542L116.468 121.75C116.276 119.549 114.336 117.921 112.135 118.114L111.052 118.209ZM191.174 108.795L191.079 109.878L193.135 110.058C195.336 110.251 196.964 112.191 196.771 114.391L196.239 120.477C196.046 122.678 194.106 124.306 191.905 124.113L182.466 123.288C180.265 123.095 178.638 121.155 178.83 118.954L178.925 117.871L176.869 117.691C174.669 117.499 173.041 115.559 173.233 113.358L173.766 107.272C173.958 105.071 175.898 103.443 178.099 103.636L187.538 104.462C189.739 104.654 191.367 106.594 191.174 108.795ZM172.44 144.853L170.649 165.316C170.457 167.517 168.517 169.145 166.316 168.953L163.906 168.742C161.706 168.549 159.765 170.177 159.573 172.378L159.126 177.491C158.933 179.691 160.561 181.632 162.762 181.824L164.817 182.004L164.722 183.087C164.53 185.288 166.158 187.228 168.358 187.42L195.311 189.778C197.512 189.971 199.452 188.343 199.644 186.142L200.092 181.03C200.284 178.829 198.656 176.889 196.456 176.696L195.127 176.58C194.879 176.558 194.638 176.514 194.406 176.45L194.495 175.433C194.666 173.481 193.404 171.733 191.58 171.23L194.52 137.618C194.713 135.417 193.085 133.477 190.884 133.284L188.829 133.104L188.924 132.021C189.116 129.821 187.488 127.88 185.288 127.688L167.633 126.143C165.432 125.951 163.492 127.579 163.3 129.779L162.852 134.892C162.66 137.093 164.288 139.033 166.489 139.226L168.544 139.405L168.449 140.489C168.257 142.689 169.885 144.629 172.085 144.822L172.44 144.853ZM217.474 184.862C221.493 189.304 226.64 191.251 232.91 190.702C236.37 190.399 239.367 189.375 241.902 187.628C244.132 186.127 246.002 184.153 247.512 181.704L248.728 181.598L248.831 184.025C248.916 186.007 250.636 187.517 252.612 187.344L259.814 186.714C262.014 186.522 263.642 184.582 263.45 182.381L257.242 111.424C257.049 109.224 255.109 107.596 252.908 107.788L251.825 107.883L251.645 105.828C251.453 103.627 249.512 101.999 247.312 102.192L240.253 102.809C238.052 103.002 218.178 107.857 218.37 110.058L237.819 120.88C238.019 123.172 236.247 125.141 233.95 125.279C233.46 125.308 233.029 125.339 232.655 125.372C222.852 126.23 215.523 129.631 210.669 135.575C205.88 141.442 203.931 149.456 204.82 159.619C205.57 168.197 207.922 174.745 211.877 179.266C213.051 180.563 214.321 181.647 215.687 182.519C216.241 183.353 216.836 184.134 217.474 184.862ZM225.586 163.017C225.876 166.333 226.494 169.113 227.44 171.358C228.127 171.522 228.85 171.571 229.61 171.504C231.916 171.303 234.066 170.134 236.058 167.999C237.897 165.955 239.488 163.216 240.832 159.783C241.046 159.235 241.122 158.642 241.071 158.056L239.868 144.309C239.201 144.313 238.546 144.343 237.902 144.399C233.361 144.797 230.03 146.577 227.91 149.74C225.861 152.897 225.087 157.323 225.586 163.017ZM288.135 190.062C284.602 189.753 281.211 189.094 277.958 188.083C275.831 187.411 273.923 186.644 272.235 185.784C270.79 185.047 270.108 183.411 270.406 181.819C269.048 181.319 267.792 180.775 266.639 180.187C265.182 179.444 264.5 177.786 264.817 176.182L265.603 172.208C266.173 169.322 269.602 167.981 272.237 169.288C273.009 169.671 273.803 170.033 274.62 170.373C277.493 171.568 280.227 172.28 282.822 172.507C285.273 172.721 287.365 172.468 289.098 171.748C290.838 170.956 291.784 169.696 291.935 167.966C291.939 167.92 291.942 167.874 291.945 167.828C291.276 167.496 290.54 167.147 289.736 166.779L286.911 165.443C283.912 164.018 281.485 162.716 279.627 161.537C277.853 160.338 276.289 158.658 274.932 156.496C274.618 156.308 274.318 156.123 274.031 155.94C272.179 154.689 270.556 152.913 269.158 150.612C267.761 148.31 267.218 145.394 267.527 141.862C268.019 136.24 270.49 132.062 274.942 129.329C279.472 126.529 285.125 125.426 291.901 126.019C296.276 126.401 300.784 127.505 305.425 129.328C307.182 130.019 308.111 131.904 307.711 133.739C308.807 134.093 309.911 134.488 311.021 134.925C312.818 135.631 313.748 137.586 313.279 139.459L312.333 143.234C311.648 145.965 308.387 147.189 305.802 146.074C305.228 145.827 304.637 145.592 304.029 145.369C301.504 144.349 299.087 143.738 296.781 143.537C294.402 143.328 292.457 143.558 290.947 144.224C289.507 144.897 288.722 145.991 288.59 147.505C288.586 147.545 288.583 147.585 288.581 147.625C289.043 147.843 289.537 148.068 290.06 148.3C292.153 149.282 293.374 149.861 293.721 150.037C296.642 151.527 299.06 152.937 300.978 154.267C302.653 155.429 304.096 157.013 305.309 159.021C305.752 159.305 306.174 159.586 306.574 159.864C308.492 161.193 310.106 163.078 311.418 165.517C312.736 167.884 313.24 170.833 312.931 174.365C312.414 180.275 309.9 184.522 305.389 187.105C300.878 189.688 295.127 190.674 288.135 190.062Z" fill="#FFED94"/>
<path fill-rule="evenodd" clip-rule="evenodd" d="M361.556 80.7416C359.355 80.549 357.415 82.177 357.222 84.3777L356.775 89.4905C356.582 91.6912 358.21 93.6313 360.411 93.8239L362.466 94.0037L362.371 95.0871C362.179 97.2879 363.807 99.228 366.008 99.4205L392.96 101.779C395.161 101.971 397.101 100.343 397.294 98.1424L397.741 93.0297C397.933 90.829 396.305 88.8888 394.105 88.6963L392.235 88.5328C392.173 88.5273 392.111 88.5205 392.05 88.5123L392.144 87.433C392.331 85.2946 390.8 83.4022 388.694 83.1202L393.663 26.3251C393.855 24.1243 392.227 22.1842 390.026 21.9917L387.971 21.8119L388.066 20.7284C388.259 18.5277 386.631 16.5875 384.43 16.395L367.857 14.945C365.656 14.7525 363.716 16.3805 363.523 18.5812L363.086 23.5858C362.893 25.7865 364.521 27.7266 366.722 27.9192L368.05 28.0354C368.298 28.0571 368.539 28.1011 368.771 28.1651L368.682 29.1825C368.511 31.1351 369.774 32.8826 371.597 33.3862L367.758 77.269C367.566 79.4697 365.626 81.0977 363.425 80.9051L361.556 80.7416ZM163.348 16.5177C161.147 16.7103 159.52 18.6504 159.712 20.8511L160.245 26.9369C160.437 29.1377 162.377 30.7656 164.578 30.5731L165.665 30.478L165.845 32.5339C166.037 34.7346 167.978 36.3625 170.178 36.17L179.616 35.3443C181.816 35.1518 183.444 33.2117 183.252 31.0109L182.719 24.9252C182.527 22.7244 180.587 21.0965 178.386 21.289L177.299 21.3841L177.119 19.3282C176.927 17.1275 174.986 15.4995 172.786 15.6921L163.348 16.5177ZM20.4267 97.5243L18.8495 97.6623C16.0801 97.9046 13.9142 95.3178 14.6394 92.6341L32.4978 26.5445C32.9357 24.9241 34.3386 23.7495 36.0107 23.6032L49.2672 22.4434C50.9335 22.2976 52.5146 23.204 53.2307 24.7157L54.8079 28.0449L54.8636 28.0401C56.53 27.8943 58.111 28.8007 58.8272 30.3124L88.1791 92.2716C89.3722 94.7899 87.6889 97.726 84.9129 97.9688L77.2361 98.6405C75.5497 98.788 73.9529 97.8579 73.2493 96.3182L71.7487 93.0342L71.6397 93.0438C69.9532 93.1913 68.3565 92.2612 67.6529 90.7215L64.2247 83.2191L41.686 85.191C39.9738 85.3408 38.5486 86.5677 38.146 88.2387L35.4177 99.5611C35.015 101.232 33.5899 102.459 31.8776 102.609L24.4459 103.259C21.6766 103.501 19.5106 100.914 20.2358 98.2308L20.4267 97.5243ZM43.7203 65.4174L50.0963 64.8596C52.8456 64.6191 54.5311 61.7324 53.3893 59.2199L49.8444 51.4198C48.3082 51.598 46.87 52.6311 46.4254 54.436L43.7203 65.4174ZM139.514 45.1147C139.956 45.6651 140.361 46.2414 140.729 46.8438C142.422 47.8632 143.882 49.1524 145.11 50.7113C148.189 54.5395 149.451 59.625 148.896 65.968L146.009 98.9596C145.817 101.16 143.877 102.788 141.676 102.596L134.401 101.959C132.2 101.767 130.572 99.8266 130.765 97.6258L130.86 96.5425L128.804 96.3627C126.604 96.1702 124.976 94.23 125.168 92.0293L127.847 61.4163C127.98 59.8914 127.896 58.5304 127.594 57.3332C127.166 57.2341 126.717 57.164 126.246 57.1229C123.363 56.8706 120.53 57.7122 117.746 59.6475C115.167 61.4398 113.071 63.7725 111.457 66.6459C111.201 67.1027 111.057 67.6128 111.011 68.1348L108.601 95.6867C108.408 97.8875 106.468 99.5154 104.267 99.3229L96.9921 98.6864C94.7914 98.4939 93.1634 96.5537 93.3559 94.353L93.4507 93.2696L91.3956 93.0898C89.1949 92.8973 87.5669 90.9572 87.7595 88.7564L91.9337 41.0452C92.1262 38.8445 94.0663 37.2165 96.2671 37.4091L105.107 38.1824C106.264 38.2837 107.12 39.3042 107.019 40.4617C106.833 42.5845 109.852 43.824 111.526 42.5058C112.676 41.5999 113.867 40.8496 115.099 40.2551C118.284 38.7179 121.895 38.126 125.931 38.4791C131.914 39.0025 136.441 41.2144 139.514 45.1147ZM166.717 78.5553L165.012 59.0645L163.689 59.1802C161.488 59.3728 159.548 57.7448 159.356 55.5441L159.176 53.4882L158.089 53.5833C155.888 53.7758 153.948 52.1479 153.755 49.9471L153.308 44.8344C153.115 42.6337 154.743 40.6936 156.944 40.501L174.599 38.9565C176.799 38.7639 178.739 40.3919 178.932 42.5926L179.112 44.6485L180.199 44.5534C182.4 44.3608 184.34 45.9888 184.532 48.1895L187.382 80.7626L187.624 80.7415C189.824 80.5489 191.764 82.1769 191.957 84.3776L192.137 86.4335L193.224 86.3384C195.425 86.1459 197.365 87.7738 197.557 89.9745L198.005 95.0873C198.197 97.288 196.569 99.2281 194.369 99.4207L167.416 101.779C165.215 101.971 163.275 100.343 163.083 98.1426L162.903 96.0867L161.816 96.1818C159.615 96.3743 157.675 94.7464 157.482 92.5456L157.035 87.4329C156.842 85.2322 158.47 83.2921 160.671 83.0995L163.081 82.8887C165.282 82.6962 166.91 80.756 166.717 78.5553ZM286.251 48.3528C285.893 47.7708 285.499 47.2132 285.07 46.68C282.069 42.786 277.578 40.5772 271.596 40.0539C267.56 39.7008 263.873 40.3224 260.538 41.919C259.318 42.4926 258.124 43.2215 256.958 44.1057C254.326 46.1017 249.819 45.2526 247.614 42.7927C246.973 42.0771 246.265 41.4196 245.491 40.8204C242.713 38.5437 239.196 37.2192 234.944 36.8472C229.652 36.3842 224.984 37.6774 220.941 40.7269C219.364 41.9162 216.627 40.7434 216.799 38.7759C216.895 37.6847 216.088 36.7227 214.996 36.6273L206.037 35.8434C203.836 35.6509 201.896 37.2788 201.703 39.4795L197.529 87.1908C197.336 89.3915 198.964 91.3316 201.165 91.5242L203.22 91.704L203.125 92.7873C202.933 94.9881 204.561 96.9282 206.762 97.1207L214.037 97.7572C216.237 97.9498 218.178 96.3218 218.37 94.1211L220.792 66.4376C220.836 65.9308 220.974 65.4355 221.215 64.9872C222.899 61.8487 224.898 59.4654 227.21 57.8372C229.765 56.0271 232.375 55.2387 235.043 55.472C235.466 55.509 235.871 55.5709 236.26 55.6578C236.576 56.8746 236.668 58.2407 236.535 59.756L233.857 90.369C233.664 92.5698 235.292 94.5099 237.493 94.7024L239.548 94.8822L239.453 95.9656C239.261 98.1663 240.889 100.106 243.089 100.299L250.364 100.935C252.565 101.128 254.505 99.5 254.698 97.2993L256.981 71.2017C257.017 70.7888 257.115 70.3828 257.284 70.0042C258.82 66.558 260.887 63.778 263.481 61.6642C266.217 59.4341 269.064 58.4486 272.019 58.7071C272.41 58.7412 272.785 58.7966 273.144 58.8731C273.451 60.0764 273.538 61.4459 273.403 62.9816L270.725 93.5946C270.532 95.7953 272.16 97.7354 274.361 97.928L276.416 98.1078L276.321 99.1911C276.129 101.392 277.757 103.332 279.957 103.525L287.233 104.161C289.433 104.354 291.373 102.726 291.566 100.525L294.452 67.5333C295.007 61.1903 293.745 56.1048 290.667 52.2765C289.443 50.6883 287.971 49.3803 286.251 48.3528ZM312.414 96.6307C316.23 101.236 321.021 103.286 326.788 102.781C330.175 102.485 333.124 101.319 335.634 99.2839C337.473 97.8291 339.057 95.9909 340.387 93.7693C340.681 93.8103 340.984 93.8191 341.293 93.7921L342.449 93.691L342.546 95.6066C342.661 97.8701 344.631 99.5862 346.889 99.3886L353.259 98.8314C355.46 98.6388 357.088 96.6987 356.895 94.498L352.743 47.0391C352.581 45.19 351.169 43.6875 349.326 43.4669C348.643 43.3851 347.969 43.3104 347.304 43.2426L347.147 41.4426C346.985 39.5934 345.572 38.091 343.729 37.8703C337.54 37.1294 332.096 36.9645 327.398 37.3755C317.668 38.2268 310.444 41.5824 305.728 47.4424C301.004 53.2302 299.091 61.2417 299.986 71.4769C300.724 79.9101 303 86.4293 306.818 91.0341C308.129 92.6165 309.555 93.8973 311.097 94.8764C311.513 95.4891 311.952 96.0739 312.414 96.6307ZM320.23 75.1383C320.523 78.4943 321.127 81.3075 322.039 83.5779C322.437 83.6315 322.848 83.6397 323.272 83.6026C325.505 83.4072 327.601 82.0255 329.555 79.4577C331.375 77.0664 333.009 73.9986 334.459 70.254C334.673 69.7024 334.75 69.108 334.699 68.5187L333.637 56.3864C333.016 56.3939 332.397 56.4247 331.78 56.4786C327.455 56.857 324.304 58.6217 322.329 61.7723C320.425 64.9166 319.725 69.3721 320.23 75.1383ZM111.052 118.209L110.872 116.153C110.679 113.953 108.739 112.325 106.538 112.517L98.8309 113.191C96.6302 113.384 95.0022 115.324 95.1947 117.525L100.797 181.562C100.99 183.763 102.93 185.391 105.131 185.198L106.214 185.103L106.394 187.159C106.586 189.359 108.526 190.987 110.727 190.795L118.435 190.12C120.635 189.928 122.263 187.988 122.071 185.787L120.928 172.726C120.655 169.605 123.746 167.668 126.287 168.602L137.111 180.781C137.55 181.275 138.099 181.646 138.702 181.871L142.707 186.377C143.548 187.323 144.786 187.815 146.046 187.705L155.148 186.908C158.423 186.622 159.973 182.726 157.79 180.268L146.046 148.232C144.8 146.829 132.434 149.751 133.535 148.232L153.144 121.172C155.156 118.396 152.971 114.541 149.556 114.84L147.906 114.984C149.251 112.285 147.138 108.965 143.96 109.243L135.84 109.954C134.664 110.056 133.593 110.674 132.915 111.64L119.266 131.084C118.763 131.801 118.115 132.278 117.412 132.542L116.468 121.75C116.276 119.549 114.336 117.921 112.135 118.114L111.052 118.209ZM191.174 108.795L191.079 109.878L193.135 110.058C195.336 110.251 196.964 112.191 196.771 114.391L196.239 120.477C196.046 122.678 194.106 124.306 191.905 124.113L182.466 123.288C180.265 123.095 178.638 121.155 178.83 118.954L178.925 117.871L176.869 117.691C174.669 117.499 173.041 115.559 173.233 113.358L173.766 107.272C173.958 105.071 175.898 103.443 178.099 103.636L187.538 104.462C189.739 104.654 191.367 106.594 191.174 108.795ZM172.44 144.853L170.649 165.316C170.457 167.517 168.517 169.145 166.316 168.953L163.906 168.742C161.706 168.549 159.765 170.177 159.573 172.378L159.126 177.491C158.933 179.691 160.561 181.632 162.762 181.824L164.817 182.004L164.722 183.087C164.53 185.288 166.158 187.228 168.358 187.42L195.311 189.778C197.512 189.971 199.452 188.343 199.644 186.142L200.092 181.03C200.284 178.829 198.656 176.889 196.456 176.696L195.127 176.58C194.879 176.558 194.638 176.514 194.406 176.45L194.495 175.433C194.666 173.481 193.404 171.733 191.58 171.23L194.52 137.618C194.713 135.417 193.085 133.477 190.884 133.284L188.829 133.104L188.924 132.021C189.116 129.821 187.488 127.88 185.288 127.688L167.633 126.143C165.432 125.951 163.492 127.579 163.3 129.779L162.852 134.892C162.66 137.093 164.288 139.033 166.489 139.226L168.544 139.405L168.449 140.489C168.257 142.689 169.885 144.629 172.085 144.822L172.44 144.853ZM217.474 184.862C221.493 189.304 226.64 191.251 232.91 190.702C236.37 190.399 239.367 189.375 241.902 187.628C244.132 186.127 246.002 184.153 247.512 181.704L248.728 181.598L248.831 184.025C248.916 186.007 250.636 187.517 252.612 187.344L259.814 186.714C262.014 186.522 263.642 184.582 263.45 182.381L257.242 111.424C257.049 109.224 255.109 107.596 252.908 107.788L251.825 107.883L251.645 105.828C251.453 103.627 249.512 101.999 247.312 102.192L240.253 102.809C238.052 103.002 218.178 107.857 218.37 110.058L237.819 120.88C238.019 123.172 236.247 125.141 233.95 125.279C233.46 125.308 233.029 125.339 232.655 125.372C222.852 126.23 215.523 129.631 210.669 135.575C205.88 141.442 203.931 149.456 204.82 159.619C205.57 168.197 207.922 174.745 211.877 179.266C213.051 180.563 214.321 181.647 215.687 182.519C216.241 183.353 216.836 184.134 217.474 184.862ZM225.586 163.017C225.876 166.333 226.494 169.113 227.44 171.358C228.127 171.522 228.85 171.571 229.61 171.504C231.916 171.303 234.066 170.134 236.058 167.999C237.897 165.955 239.488 163.216 240.832 159.783C241.046 159.235 241.122 158.642 241.071 158.056L239.868 144.309C239.201 144.313 238.546 144.343 237.902 144.399C233.361 144.797 230.03 146.577 227.91 149.74C225.861 152.897 225.087 157.323 225.586 163.017ZM288.135 190.062C284.602 189.753 281.211 189.094 277.958 188.083C275.831 187.411 273.923 186.644 272.235 185.784C270.79 185.047 270.108 183.411 270.406 181.819C269.048 181.319 267.792 180.775 266.639 180.187C265.182 179.444 264.5 177.786 264.817 176.182L265.603 172.208C266.173 169.322 269.602 167.981 272.237 169.288C273.009 169.671 273.803 170.033 274.62 170.373C277.493 171.568 280.227 172.28 282.822 172.507C285.273 172.721 287.365 172.468 289.098 171.748C290.838 170.956 291.784 169.696 291.935 167.966C291.939 167.92 291.942 167.874 291.945 167.828C291.276 167.496 290.54 167.147 289.736 166.779L286.911 165.443C283.912 164.018 281.485 162.716 279.627 161.537C277.853 160.338 276.289 158.658 274.932 156.496C274.618 156.308 274.318 156.123 274.031 155.94C272.179 154.689 270.556 152.913 269.158 150.612C267.761 148.31 267.218 145.394 267.527 141.862C268.019 136.24 270.49 132.062 274.942 129.329C279.472 126.529 285.125 125.426 291.901 126.019C296.276 126.401 300.784 127.505 305.425 129.328C307.182 130.019 308.111 131.904 307.711 133.739C308.807 134.093 309.911 134.488 311.021 134.925C312.818 135.631 313.748 137.586 313.279 139.459L312.333 143.234C311.648 145.965 308.387 147.189 305.802 146.074C305.228 145.827 304.637 145.592 304.029 145.369C301.504 144.349 299.087 143.738 296.781 143.537C294.402 143.328 292.457 143.558 290.947 144.224C289.507 144.897 288.722 145.991 288.59 147.505C288.586 147.545 288.583 147.585 288.581 147.625C289.043 147.843 289.537 148.068 290.06 148.3C292.153 149.282 293.374 149.861 293.721 150.037C296.642 151.527 299.06 152.937 300.978 154.267C302.653 155.429 304.096 157.013 305.309 159.021C305.752 159.305 306.174 159.586 306.574 159.864C308.492 161.193 310.106 163.078 311.418 165.517C312.736 167.884 313.24 170.833 312.931 174.365C312.414 180.275 309.9 184.522 305.389 187.105C300.878 189.688 295.127 190.674 288.135 190.062Z" stroke="#FFED94" stroke-width="27.9" stroke-linecap="round" stroke-linejoin="round" mask="url(#path-1-outside-1)"/>
<path d="M37.7463 31.5215C38.1841 29.9012 39.5871 28.7265 41.2592 28.5802L54.5156 27.4204C56.182 27.2746 57.763 28.1811 58.4791 29.6927L87.8311 91.6519C89.0242 94.1703 87.3409 97.1063 84.5649 97.3492L76.8881 98.0208C75.2017 98.1684 73.6049 97.2383 72.9013 95.6985L67.9725 84.9122C67.2689 83.3724 65.6722 82.4423 63.9857 82.5899L41.338 84.5713C39.6258 84.7211 38.2006 85.9481 37.798 87.6191L35.0697 98.9414C34.667 100.612 33.2419 101.839 31.5296 101.989L24.0979 102.639C21.3286 102.882 19.1626 100.295 19.8878 97.6111L37.7463 31.5215ZM55.3448 69.8366C58.0941 69.5961 59.7796 66.7094 58.6377 64.1969L53.6028 53.1181C52.0329 49.6637 46.9849 50.132 46.0774 53.8164L43.1773 65.5893C42.5214 68.2518 44.6781 70.7698 47.4098 70.5309L55.3448 69.8366Z" fill="#DCC07A"/>
<path d="M97.182 46.0221C97.3746 43.8214 99.3147 42.1934 101.515 42.386L110.355 43.1593C111.513 43.2606 112.369 44.2811 112.268 45.4386C112.082 47.5613 115.1 48.8009 116.774 47.4827C117.925 46.5768 119.116 45.8265 120.348 45.232C123.533 43.6948 127.143 43.1029 131.18 43.456C137.162 43.9794 141.69 46.1913 144.762 50.0916C147.841 53.9199 149.103 59.0054 148.548 65.3483L145.661 98.3399C145.469 100.541 143.529 102.169 141.328 101.976L134.053 101.34C131.852 101.147 130.224 99.2069 130.417 97.0062L133.095 66.3932C133.347 63.51 132.822 61.2126 131.519 59.5007C130.223 57.7168 128.349 56.7176 125.898 56.5032C123.015 56.2509 120.182 57.0925 117.398 59.0278C114.819 60.8201 112.723 63.1529 111.109 66.0262C110.853 66.483 110.709 66.9932 110.663 67.5151L108.252 95.0671C108.06 97.2678 106.12 98.8958 103.919 98.7032L96.644 98.0667C94.4433 97.8742 92.8153 95.9341 93.0078 93.7333L97.182 46.0221Z" fill="#DCC07A"/>
<path d="M164.964 25.8285C164.772 23.6277 166.4 21.6876 168.601 21.4951L178.038 20.6694C180.239 20.4769 182.179 22.1048 182.371 24.3056L182.904 30.3913C183.096 32.5921 181.468 34.5322 179.268 34.7247L169.83 35.5504C167.629 35.7429 165.689 34.115 165.497 31.9142L164.964 25.8285Z" fill="#DCC07A"/>
<path d="M162.287 92.4102C162.095 90.2095 163.723 88.2694 165.923 88.0768L168.333 87.866C170.534 87.6735 172.162 85.7333 171.969 83.5326L170.084 61.9859C169.892 59.7852 167.952 58.1573 165.751 58.3498L163.341 58.5606C161.14 58.7532 159.2 57.1252 159.008 54.9245L158.56 49.8117C158.368 47.611 159.996 45.6709 162.196 45.4783L179.851 43.9338C182.052 43.7412 183.992 45.3692 184.184 47.5699L187.214 82.1989C187.406 84.3996 189.347 86.0276 191.547 85.835L192.876 85.7188C195.077 85.5263 197.017 87.1542 197.209 89.3549L197.657 94.4677C197.849 96.6684 196.221 98.6085 194.02 98.8011L167.068 101.159C164.867 101.352 162.927 99.7237 162.734 97.523L162.287 92.4102Z" fill="#DCC07A"/>
<path d="M206.952 44.4565C207.144 42.2558 209.084 40.6278 211.285 40.8203L220.245 41.6042C221.336 41.6997 222.143 42.6617 222.048 43.7529C221.875 45.7204 224.613 46.8931 226.189 45.7039C230.233 42.6544 234.9 41.3612 240.192 41.8242C244.444 42.1962 247.961 43.5206 250.739 45.7974C251.514 46.3966 252.221 47.054 252.863 47.7696C255.068 50.2296 259.575 51.0786 262.207 49.0826C263.373 48.1984 264.566 47.4695 265.787 46.896C269.121 45.2994 272.809 44.6777 276.844 45.0308C282.826 45.5542 287.318 47.7629 290.319 51.6569C293.397 55.4852 294.659 60.5707 294.104 66.9137L291.218 99.9053C291.025 102.106 289.085 103.734 286.884 103.541L279.609 102.905C277.409 102.712 275.781 100.772 275.973 98.5715L278.652 67.9585C278.904 65.0753 278.378 62.7779 277.076 61.066C275.851 59.2884 274.05 58.2956 271.671 58.0875C268.716 57.829 265.869 58.8145 263.132 61.0446C260.538 63.1584 258.472 65.9384 256.936 69.3846C256.767 69.7632 256.669 70.1692 256.633 70.5821L254.35 96.6797C254.157 98.8804 252.217 100.508 250.016 100.316L242.741 99.6794C240.54 99.4868 238.912 97.5467 239.105 95.346L241.783 64.733C242.029 61.9219 241.503 59.6243 240.207 57.8405C238.911 56.0567 237.073 55.0605 234.695 54.8524C232.027 54.6191 229.417 55.4075 226.862 57.2176C224.55 58.8458 222.551 61.2291 220.867 64.3676C220.626 64.8158 220.488 65.3112 220.444 65.818L218.022 93.5015C217.829 95.7022 215.889 97.3301 213.689 97.1376L206.414 96.5011C204.213 96.3086 202.585 94.3685 202.777 92.1677L206.952 44.4565Z" fill="#DCC07A"/>
<path d="M326.44 102.162C320.673 102.666 315.882 100.616 312.066 96.0111C308.249 91.4063 305.973 84.8871 305.235 76.4539C304.339 66.2186 306.253 58.2071 310.976 52.4193C315.693 46.5594 322.916 43.2037 332.647 42.3524C337.345 41.9414 342.789 42.1063 348.978 42.8473C350.821 43.0679 352.233 44.5704 352.395 46.4195L356.547 93.8783C356.74 96.0791 355.112 98.0192 352.911 98.2118L346.541 98.769C344.283 98.9666 342.313 97.2505 342.198 94.987L341.971 90.5131C341.963 90.362 341.832 90.2475 341.681 90.2607C341.584 90.2692 341.5 90.3298 341.46 90.4183C339.889 93.9017 337.832 96.6504 335.286 98.6643C332.776 100.7 329.828 101.865 326.44 102.162ZM328.52 88.5795C330.754 88.3841 332.849 87.0024 334.804 84.4346C336.623 82.0434 338.257 78.9756 339.708 75.2309C339.921 74.6793 339.999 74.0849 339.947 73.4957L338.701 59.2458C338.545 57.4604 337.221 55.9629 335.433 55.8324C334.09 55.7343 332.756 55.7432 331.432 55.859C327.107 56.2374 323.956 58.0021 321.981 61.1527C320.077 64.297 319.378 68.7525 319.882 74.5187C320.279 79.0597 321.243 82.6068 322.774 85.1602C324.298 87.6416 326.213 88.7814 328.52 88.5795Z" fill="#DCC07A"/>
<path d="M362.471 89.3548C362.663 87.1541 364.603 85.5261 366.804 85.7187L368.673 85.8822C370.874 86.0747 372.814 84.4468 373.007 82.246L376.935 37.3459C377.127 35.1452 375.499 33.205 373.299 33.0125L371.97 32.8963C369.769 32.7037 368.141 30.7636 368.334 28.5629L368.772 23.5583C368.964 21.3575 370.904 19.7296 373.105 19.9221L389.678 21.3721C391.879 21.5646 393.507 23.5047 393.315 25.7055L388.251 83.5798C388.059 85.7805 389.687 87.7206 391.887 87.9132L393.757 88.0767C395.957 88.2692 397.585 90.2094 397.393 92.4101L396.945 97.5228C396.753 99.7236 394.813 101.352 392.612 101.159L365.659 98.8009C363.459 98.6084 361.831 96.6683 362.023 94.4675L362.471 89.3548Z" fill="#DCC07A"/>
<path d="M32.1498 25.9249C32.5877 24.3045 33.9906 23.1299 35.6627 22.9836L48.9192 21.8238C50.5855 21.678 52.1666 22.5844 52.8827 24.0961L82.2347 86.0553C83.4277 88.5737 81.7445 91.5097 78.9684 91.7526L71.2917 92.4242C69.6052 92.5717 68.0085 91.6416 67.3049 90.1019L62.3761 79.3156C61.6725 77.7758 60.0757 76.8457 58.3893 76.9933L35.7416 78.9747C34.0293 79.1245 32.6042 80.3514 32.2015 82.0224L29.4732 93.3448C29.0706 95.0158 27.6454 96.2427 25.9332 96.3925L18.5015 97.0427C15.7321 97.285 13.5662 94.6982 14.2914 92.0145L32.1498 25.9249ZM49.7483 64.24C52.4976 63.9995 54.1831 61.1128 53.0413 58.6003L48.0064 47.5215C46.4365 44.067 41.3885 44.5354 40.4809 48.2197L37.5808 59.9927C36.925 62.6552 39.0817 65.1732 41.8134 64.9342L49.7483 64.24Z" fill="#D50004"/>
<path d="M91.5856 40.4257C91.7781 38.2249 93.7183 36.597 95.919 36.7895L104.759 37.5629C105.916 37.6642 106.772 38.6846 106.671 39.8422C106.485 41.9649 109.503 43.2045 111.178 41.8862C112.328 40.9803 113.519 40.2301 114.751 39.6355C117.936 38.0984 121.547 37.5064 125.583 37.8596C131.566 38.383 136.093 40.5949 139.166 44.4951C142.244 48.3234 143.506 53.4089 142.951 59.7519L140.065 92.7435C139.872 94.9442 137.932 96.5722 135.731 96.3796L128.456 95.7431C126.256 95.5506 124.628 93.6105 124.82 91.4097L127.499 60.7968C127.751 57.9136 127.225 55.6162 125.923 53.9043C124.626 52.1204 122.753 51.1212 120.302 50.9068C117.419 50.6545 114.585 51.4961 111.801 53.4314C109.223 55.2237 107.127 57.5564 105.513 60.4298C105.256 60.8866 105.112 61.3967 105.067 61.9187L102.656 89.4706C102.464 91.6714 100.523 93.2993 98.3226 93.1068L91.0476 92.4703C88.8468 92.2778 87.2189 90.3376 87.4114 88.1369L91.5856 40.4257Z" fill="#A60108"/>
<path d="M159.364 20.2315C159.172 18.0308 160.799 16.0907 163 15.8981L172.438 15.0725C174.638 14.8799 176.579 16.5079 176.771 18.7086L177.304 24.7944C177.496 26.9951 175.868 28.9353 173.667 29.1278L164.23 29.9535C162.029 30.146 160.089 28.5181 159.897 26.3173L159.364 20.2315Z" fill="#D50004"/>
<path d="M156.687 86.8133C156.494 84.6126 158.122 82.6725 160.323 82.4799L162.733 82.2691C164.934 82.0765 166.562 80.1364 166.369 77.9357L164.484 56.389C164.291 54.1883 162.351 52.5603 160.15 52.7529L157.741 52.9637C155.54 53.1562 153.6 51.5283 153.407 49.3275L152.96 44.2148C152.767 42.0141 154.395 40.074 156.596 39.8814L174.251 38.3369C176.451 38.1443 178.391 39.7723 178.584 41.973L181.614 76.6019C181.806 78.8027 183.746 80.4306 185.947 80.2381L187.276 80.1219C189.476 79.9293 191.416 81.5573 191.609 83.758L192.056 88.8707C192.249 91.0715 190.621 93.0116 188.42 93.2041L161.468 95.5622C159.267 95.7547 157.327 94.1268 157.134 91.926L156.687 86.8133Z" fill="#D50004"/>
<path d="M201.355 38.8601C201.548 36.6593 203.488 35.0314 205.689 35.2239L214.648 36.0078C215.739 36.1032 216.547 37.0652 216.451 38.1565C216.279 40.124 219.016 41.2967 220.593 40.1074C224.636 37.0579 229.304 35.7647 234.596 36.2277C238.848 36.5998 242.365 37.9242 245.143 40.201C245.917 40.8002 246.625 41.4576 247.266 42.1732C249.471 44.6332 253.978 45.4822 256.61 43.4862C257.776 42.602 258.97 41.8731 260.19 41.2995C263.525 39.703 267.212 39.0813 271.248 39.4344C277.23 39.9577 281.721 42.1665 284.722 46.0605C287.8 49.8887 289.063 54.9743 288.508 61.3172L285.621 94.3088C285.429 96.5096 283.489 98.1375 281.288 97.945L274.013 97.3085C271.812 97.116 270.184 95.1758 270.377 92.9751L273.055 62.3621C273.307 59.4789 272.781 57.1815 271.479 55.4696C270.254 53.692 268.453 52.6991 266.075 52.491C263.12 52.2325 260.273 53.2181 257.536 55.4481C254.942 57.562 252.876 60.3419 251.34 63.7882C251.171 64.1668 251.073 64.5728 251.036 64.9857L248.753 91.0833C248.561 93.284 246.621 94.912 244.42 94.7194L237.145 94.0829C234.944 93.8904 233.316 91.9503 233.509 89.7495L236.187 59.1366C236.433 56.3255 235.907 54.0279 234.611 52.2441C233.315 50.4602 231.477 49.4641 229.098 49.256C226.431 49.0226 223.82 49.811 221.265 51.6212C218.954 53.2494 216.955 55.6327 215.27 58.7712C215.03 59.2194 214.892 59.7148 214.848 60.2215L212.426 87.905C212.233 90.1057 210.293 91.7337 208.092 91.5412L200.817 90.9047C198.616 90.7121 196.988 88.772 197.181 86.5713L201.355 38.8601Z" fill="#A60108"/>
<path d="M320.844 96.5654C315.076 97.07 310.286 95.0196 306.47 90.4147C302.652 85.8099 300.376 79.2906 299.638 70.8574C298.743 60.6222 300.657 52.6107 305.38 46.8229C310.096 40.9629 317.32 37.6073 327.051 36.756C331.748 36.345 337.192 36.5099 343.381 37.2508C345.224 37.4715 346.637 38.974 346.799 40.8231L350.951 88.2819C351.143 90.4826 349.515 92.4228 347.315 92.6153L340.945 93.1726C338.687 93.3701 336.716 91.6541 336.601 89.3905L336.374 84.9166C336.367 84.7656 336.235 84.6511 336.085 84.6643C335.988 84.6727 335.903 84.7334 335.863 84.8219C334.293 88.3053 332.235 91.0539 329.689 93.0679C327.18 95.1033 324.231 96.2691 320.844 96.5654ZM322.924 82.9831C325.157 82.7877 327.253 81.406 329.207 78.8382C331.027 76.4469 332.661 73.3792 334.111 69.6345C334.325 69.0829 334.402 68.4885 334.351 67.8992L333.104 53.6493C332.948 51.8639 331.624 50.3664 329.837 50.2359C328.493 50.1379 327.16 50.1467 325.835 50.2626C321.511 50.641 318.359 52.4057 316.384 55.5562C314.481 58.7006 313.781 63.156 314.286 68.9223C314.683 73.4632 315.647 77.0104 317.178 79.5638C318.702 82.0451 320.616 83.185 322.924 82.9831Z" fill="#D50004"/>
<path d="M356.874 83.7582C357.067 81.5575 359.007 79.9295 361.208 80.122L363.077 80.2856C365.277 80.4781 367.218 78.8501 367.41 76.6494L371.338 31.7493C371.531 29.5485 369.903 27.6084 367.702 27.4159L366.374 27.2996C364.173 27.1071 362.545 25.167 362.738 22.9662L363.175 17.9616C363.368 15.7609 365.308 14.1329 367.509 14.3255L384.082 15.7755C386.283 15.968 387.911 17.9081 387.718 20.1089L382.655 77.9832C382.462 80.1839 384.09 82.124 386.291 82.3166L388.16 82.4801C390.361 82.6726 391.989 84.6128 391.796 86.8135L391.349 91.9262C391.156 94.1269 389.216 95.7549 387.016 95.5624L360.063 93.2043C357.862 93.0118 356.234 91.0716 356.427 88.8709L356.874 83.7582Z" fill="#A60108"/>
<path d="M100.443 122.502C100.251 120.301 101.879 118.361 104.079 118.169L111.787 117.494C113.988 117.302 115.928 118.93 116.12 121.13L117.256 134.112C117.581 137.83 122.37 139.116 124.515 136.061L138.163 116.617C138.842 115.651 139.912 115.034 141.089 114.931L149.208 114.22C152.623 113.922 154.807 117.776 152.796 120.552L133.187 147.613C132.086 149.132 132.189 151.213 133.435 152.616L157.442 179.648C159.625 182.106 158.075 186.002 154.8 186.289L145.698 187.085C144.438 187.195 143.2 186.703 142.359 185.758L127.555 169.101C124.995 166.221 120.244 168.269 120.58 172.107L121.723 185.168C121.915 187.368 120.287 189.308 118.087 189.501L110.379 190.175C108.178 190.368 106.238 188.74 106.046 186.539L100.443 122.502Z" fill="#DCC07A"/>
<path d="M179.014 112.249C179.207 110.048 181.147 108.42 183.348 108.613L192.787 109.439C194.988 109.631 196.616 111.571 196.423 113.772L195.891 119.858C195.698 122.058 193.758 123.686 191.557 123.494L182.118 122.668C179.917 122.476 178.289 120.535 178.482 118.335L179.014 112.249Z" fill="#DCC07A"/>
<path d="M164.822 177.355C165.014 175.154 166.954 173.526 169.155 173.719L171.565 173.929C173.766 174.122 175.706 172.494 175.898 170.293L177.783 148.747C177.976 146.546 176.348 144.606 174.147 144.413L171.737 144.202C169.537 144.01 167.909 142.07 168.101 139.869L168.548 134.756C168.741 132.556 170.681 130.928 172.882 131.12L190.536 132.665C192.737 132.857 194.365 134.797 194.172 136.998L191.143 171.627C190.95 173.828 192.578 175.768 194.779 175.96L196.108 176.077C198.308 176.269 199.936 178.209 199.744 180.41L199.296 185.523C199.104 187.724 197.164 189.352 194.963 189.159L168.01 186.801C165.81 186.608 164.182 184.668 164.374 182.468L164.822 177.355Z" fill="#DCC07A"/>
<path d="M232.562 190.083C226.291 190.631 221.145 188.685 217.126 184.243C213.171 179.722 210.819 173.174 210.068 164.596C209.179 154.433 211.129 146.419 215.918 140.552C220.772 134.608 228.101 131.207 237.904 130.349C238.278 130.316 238.709 130.285 239.198 130.256C241.495 130.119 243.268 128.15 243.067 125.857L241.865 112.12C241.673 109.919 243.301 107.979 245.501 107.786L252.56 107.169C254.761 106.976 256.701 108.604 256.894 110.805L263.101 181.761C263.294 183.962 261.666 185.902 259.465 186.095L252.264 186.725C250.288 186.898 248.568 185.387 248.483 183.406L248.341 180.055C248.334 179.9 248.199 179.781 248.044 179.795C247.952 179.803 247.87 179.857 247.826 179.938C246.212 182.924 244.122 185.28 241.554 187.008C239.019 188.755 236.022 189.78 232.562 190.083ZM234.858 176.481C237.164 176.28 239.314 175.111 241.306 172.976C243.145 170.932 244.736 168.193 246.08 164.76C246.295 164.212 246.371 163.62 246.32 163.033L244.935 147.205C244.777 145.397 243.422 143.89 241.612 143.76C240.212 143.659 238.859 143.666 237.554 143.78C233.013 144.177 229.682 145.957 227.562 149.121C225.513 152.278 224.739 156.703 225.237 162.398C225.641 167.011 226.679 170.588 228.355 173.128C230.096 175.591 232.264 176.708 234.858 176.481Z" fill="#DCC07A"/>
<path d="M287.787 189.443C284.254 189.134 280.863 188.474 277.61 187.463C275.483 186.791 273.575 186.025 271.887 185.164C270.43 184.421 269.748 182.763 270.066 181.159L270.851 177.185C271.422 174.3 274.85 172.958 277.485 174.266C278.257 174.649 279.052 175.01 279.868 175.35C282.741 176.545 285.476 177.257 288.07 177.484C290.522 177.698 292.614 177.445 294.347 176.726C296.086 175.933 297.032 174.673 297.183 172.943C297.303 171.573 296.819 170.478 295.728 169.656C294.643 168.762 292.531 167.597 289.388 166.16L286.563 164.823C283.564 163.399 281.137 162.097 279.279 160.918C277.427 159.666 275.804 157.89 274.407 155.589C273.01 153.288 272.466 150.371 272.775 146.839C273.267 141.217 275.739 137.039 280.191 134.306C284.72 131.506 290.373 130.403 297.149 130.996C301.524 131.378 306.032 132.482 310.673 134.305C312.47 135.011 313.4 136.967 312.931 138.839L311.985 142.614C311.3 145.345 308.039 146.569 305.454 145.455C304.88 145.207 304.289 144.972 303.681 144.75C301.155 143.73 298.739 143.119 296.433 142.917C294.054 142.709 292.109 142.938 290.599 143.605C289.159 144.278 288.374 145.371 288.242 146.885C288.116 148.327 288.597 149.458 289.688 150.28C290.779 151.102 292.652 152.101 295.309 153.277C297.402 154.259 298.623 154.838 298.97 155.014C301.89 156.504 304.308 157.914 306.226 159.244C308.144 160.574 309.758 162.458 311.07 164.897C312.388 167.264 312.892 170.213 312.583 173.745C312.066 179.656 309.552 183.903 305.041 186.486C300.53 189.069 294.779 190.055 287.787 189.443Z" fill="#DCC07A"/>
<path d="M94.8467 116.905C94.6541 114.705 96.2821 112.765 98.4828 112.572L106.19 111.898C108.391 111.705 110.331 113.333 110.524 115.534L111.66 128.515C111.985 132.233 116.774 133.519 118.918 130.465L132.567 111.021C133.245 110.054 134.316 109.437 135.492 109.334L143.612 108.624C147.027 108.325 149.211 112.18 147.2 114.956L127.591 142.016C126.49 143.535 126.593 145.616 127.839 147.019L151.845 174.051C154.029 176.51 152.478 180.406 149.203 180.692L140.101 181.489C138.841 181.599 137.603 181.107 136.763 180.161L121.958 163.504C119.399 160.624 114.648 162.672 114.984 166.51L116.126 179.571C116.319 181.772 114.691 183.712 112.49 183.904L104.783 184.579C102.582 184.771 100.642 183.143 100.449 180.942L94.8467 116.905Z" fill="#D50004"/>
<path d="M173.418 106.653C173.61 104.452 175.55 102.824 177.751 103.016L187.19 103.842C189.391 104.035 191.019 105.975 190.826 108.176L190.294 114.261C190.101 116.462 188.161 118.09 185.96 117.898L176.521 117.072C174.321 116.879 172.693 114.939 172.885 112.738L173.418 106.653Z" fill="#A60108"/>
<path d="M159.225 171.759C159.417 169.558 161.357 167.93 163.558 168.122L165.968 168.333C168.169 168.526 170.109 166.898 170.301 164.697L172.186 143.15C172.379 140.95 170.751 139.009 168.55 138.817L166.141 138.606C163.94 138.414 162.312 136.473 162.504 134.273L162.952 129.16C163.144 126.959 165.084 125.331 167.285 125.524L184.939 127.068C187.14 127.261 188.768 129.201 188.576 131.402L185.546 166.031C185.353 168.231 186.981 170.172 189.182 170.364L190.511 170.48C192.712 170.673 194.339 172.613 194.147 174.814L193.7 179.927C193.507 182.127 191.567 183.755 189.366 183.563L162.414 181.205C160.213 181.012 158.585 179.072 158.777 176.871L159.225 171.759Z" fill="#A60108"/>
<path d="M226.966 184.486C220.695 185.035 215.549 183.088 211.529 178.646C207.574 174.126 205.222 167.577 204.472 159C203.583 148.837 205.532 140.822 210.321 134.956C215.175 129.011 222.504 125.61 232.307 124.752C232.681 124.72 233.113 124.689 233.602 124.659C235.899 124.522 237.671 122.553 237.471 120.26L236.269 106.523C236.076 104.322 237.704 102.382 239.905 102.19L246.964 101.572C249.164 101.38 251.105 103.007 251.297 105.208L257.505 176.165C257.698 178.365 256.07 180.306 253.869 180.498L246.667 181.128C244.692 181.301 242.971 179.791 242.887 177.809L242.744 174.459C242.738 174.303 242.603 174.184 242.447 174.198C242.355 174.206 242.273 174.261 242.229 174.342C240.616 177.327 238.526 179.684 235.957 181.412C233.422 183.159 230.426 184.183 226.966 184.486ZM229.262 170.885C231.568 170.683 233.718 169.515 235.71 167.379C237.549 165.335 239.14 162.597 240.484 159.163C240.698 158.615 240.774 158.023 240.723 157.436L239.338 141.609C239.18 139.801 237.826 138.294 236.015 138.163C234.616 138.062 233.263 138.069 231.957 138.183C227.416 138.581 224.086 140.361 221.966 143.524C219.917 146.681 219.143 151.107 219.641 156.801C220.045 161.414 221.083 164.991 222.759 167.532C224.499 169.994 226.667 171.112 229.262 170.885Z" fill="#D50004"/>
<path d="M282.19 183.846C278.658 183.537 275.267 182.878 272.014 181.867C269.887 181.195 267.979 180.428 266.291 179.568C264.834 178.825 264.152 177.167 264.469 175.562L265.255 171.589C265.825 168.703 269.254 167.362 271.889 168.669C272.661 169.052 273.455 169.413 274.272 169.753C277.145 170.949 279.879 171.66 282.474 171.887C284.925 172.102 287.017 171.849 288.75 171.129C290.489 170.337 291.436 169.076 291.587 167.346C291.707 165.977 291.222 164.881 290.131 164.059C289.047 163.166 286.934 162 283.792 160.563L280.967 159.227C277.968 157.802 275.54 156.5 273.682 155.321C271.831 154.07 270.207 152.293 268.81 149.992C267.413 147.691 266.87 144.775 267.179 141.243C267.671 135.621 270.142 131.443 274.594 128.709C279.124 125.91 284.777 124.806 291.553 125.399C295.928 125.782 300.436 126.885 305.077 128.709C306.874 129.415 307.804 131.37 307.335 133.243L306.388 137.018C305.704 139.749 302.443 140.973 299.857 139.858C299.283 139.611 298.692 139.376 298.084 139.153C295.559 138.133 293.142 137.522 290.837 137.32C288.458 137.112 286.513 137.342 285.002 138.008C283.563 138.681 282.778 139.775 282.645 141.289C282.519 142.73 283.001 143.862 284.091 144.683C285.182 145.505 287.056 146.504 289.712 147.681C291.805 148.663 293.026 149.242 293.373 149.417C296.293 150.908 298.712 152.318 300.63 153.648C302.547 154.977 304.161 156.862 305.473 159.301C306.791 161.668 307.296 164.617 306.987 168.149C306.47 174.059 303.955 178.306 299.445 180.889C294.934 183.472 289.182 184.458 282.19 183.846Z" fill="#A60108"/>
</svg>
