<svg width="308" height="81" viewBox="0 0 308 81" fill="none" xmlns="http://www.w3.org/2000/svg">
<path d="M2.01749 9.805C2.57471 9.78578 3.63149 9.77617 5.18784 9.77617C6.76341 9.77617 7.82979 9.78578 8.38701 9.805C10.3661 9.84342 11.9224 10.3718 13.0561 11.3902C14.1897 12.4085 14.7565 13.8208 14.7565 15.6269C14.7565 16.9143 14.4683 18.0575 13.8919 19.0566C13.3155 20.0366 12.4988 20.7955 11.4421 21.3335C10.4045 21.8715 9.22283 22.1405 7.89704 22.1405H6.02366V29H2.01749V9.805ZM7.72412 18.7396C8.66561 18.7396 9.39575 18.4706 9.91454 17.9326C10.4525 17.3946 10.7215 16.6645 10.7215 15.7422C10.7215 14.0513 9.78964 13.2059 7.92587 13.2059H6.02366V18.7396H7.72412ZM17.7215 14.157H21.7853V16.578H22.0159C22.5731 15.5981 23.1207 14.8775 23.6587 14.4164C24.2159 13.9553 24.9076 13.7247 25.7338 13.7247C26.0797 13.7247 26.3679 13.7631 26.5985 13.84L26.1662 18.2208C25.6666 18.0863 25.2631 18.0191 24.9557 18.0191C24.5137 18.0191 24.1198 18.1055 23.774 18.2785C23.4474 18.4514 23.1495 18.682 22.8805 18.9702C22.6307 19.2584 22.2657 19.7003 21.7853 20.296V29H17.7215V14.157ZM35.4995 29.4323C34.0008 29.4323 32.6751 29.1057 31.5222 28.4524C30.3886 27.7991 29.5047 26.8864 28.8706 25.7144C28.2366 24.5231 27.9195 23.1493 27.9195 21.5929C27.9195 20.0366 28.227 18.6724 28.8418 17.5003C29.4759 16.309 30.3597 15.3867 31.4934 14.7334C32.6462 14.0802 33.972 13.7535 35.4707 13.7535C36.9694 13.7535 38.2856 14.0802 39.4192 14.7334C40.5721 15.3675 41.456 16.2706 42.0708 17.4426C42.7049 18.6147 43.0219 19.9693 43.0219 21.5065C43.0219 23.0628 42.7049 24.4462 42.0708 25.6567C41.456 26.848 40.5721 27.7799 39.4192 28.4524C38.2856 29.1057 36.979 29.4323 35.4995 29.4323ZM35.4707 25.9161C36.5083 25.9161 37.3345 25.5222 37.9494 24.7344C38.5834 23.9274 38.9005 22.8707 38.9005 21.5641C38.9005 20.2575 38.5834 19.22 37.9494 18.4514C37.3345 17.6636 36.5083 17.2697 35.4707 17.2697C34.4332 17.2697 33.5973 17.6636 32.9633 18.4514C32.3484 19.22 32.041 20.2575 32.041 21.5641C32.041 22.8707 32.3484 23.9274 32.9633 24.7344C33.5973 25.5222 34.4332 25.9161 35.4707 25.9161ZM51.1288 35.5424C49.4187 35.5424 47.7471 35.3215 46.1139 34.8796L46.8921 31.3057C48.7366 31.8437 50.2738 32.1127 51.5035 32.1127C52.4834 32.1127 53.2328 31.959 53.7515 31.6516C54.2895 31.3441 54.6642 30.8638 54.8756 30.2105C55.1062 29.5572 55.2407 28.6638 55.2791 27.5301H55.1926C54.6546 28.145 54.0302 28.6157 53.3192 28.9424C52.6083 29.269 51.8301 29.4323 50.9847 29.4323C49.2939 29.4323 47.9681 28.7983 47.0074 27.5301C46.0659 26.2428 45.5951 24.4654 45.5951 22.1982C45.5951 19.4505 46.2964 17.3562 47.6991 15.9151C49.1209 14.474 51.148 13.7535 53.7804 13.7535C55.2983 13.7535 57.1044 13.9841 59.1988 14.4452C59.2372 18.4034 59.2564 21.3816 59.2564 23.3798C59.2564 25.1668 59.2468 26.5118 59.2276 27.4148C59.1892 30.1432 58.4975 32.18 57.1525 33.5249C55.8267 34.8699 53.8188 35.5424 51.1288 35.5424ZM52.0511 25.8873C52.6467 25.8873 53.2136 25.6663 53.7515 25.2244C54.3088 24.7825 54.7987 24.158 55.2214 23.351L55.1926 17.5579C54.5585 17.385 53.9437 17.2985 53.3481 17.2985C52.1376 17.2985 51.2153 17.6924 50.5812 18.4802C49.9663 19.268 49.6589 20.4112 49.6589 21.91C49.6589 23.1589 49.8607 24.1388 50.2642 24.8497C50.6869 25.5414 51.2825 25.8873 52.0511 25.8873ZM63.0363 14.157H67.1001V16.578H67.3307C67.8879 15.5981 68.4355 14.8775 68.9735 14.4164C69.5307 13.9553 70.2224 13.7247 71.0486 13.7247C71.3945 13.7247 71.6827 13.7631 71.9133 13.84L71.4809 18.2208C70.9814 18.0863 70.5779 18.0191 70.2705 18.0191C69.8285 18.0191 69.4346 18.1055 69.0888 18.2785C68.7621 18.4514 68.4643 18.682 68.1953 18.9702C67.9455 19.2584 67.5805 19.7003 67.1001 20.296V29H63.0363V14.157ZM78.2492 29.4323C76.7121 29.4323 75.492 28.779 74.5889 27.4725C73.6859 26.1659 73.2343 24.3886 73.2343 22.1405C73.2343 19.4121 73.926 17.337 75.3095 15.9151C76.6929 14.474 78.6816 13.7535 81.2755 13.7535C82.7358 13.7535 84.4458 13.9841 86.4057 14.4452V29H82.5436L82.6301 26.6367H82.5148C82.0152 27.5397 81.4004 28.2314 80.6702 28.7118C79.9593 29.1921 79.1523 29.4323 78.2492 29.4323ZM79.1139 25.8873C79.7095 25.8873 80.2955 25.5703 80.872 24.9362C81.4484 24.3021 81.9864 23.4567 82.486 22.3999V17.5579C81.8711 17.385 81.2563 17.2985 80.6414 17.2985C79.4885 17.2985 78.6143 17.6924 78.0187 18.4802C77.4422 19.268 77.154 20.4305 77.154 21.9676C77.154 23.1781 77.3269 24.1388 77.6728 24.8497C78.0187 25.5414 78.499 25.8873 79.1139 25.8873ZM90.3357 14.157H94.3131V16.4627C95.4851 14.6566 97.0703 13.7535 99.0686 13.7535C100.202 13.7535 101.163 14.0225 101.951 14.5605C102.758 15.0793 103.344 15.8287 103.709 16.8086C104.381 15.7518 105.131 14.9832 105.957 14.5029C106.802 14.0033 107.763 13.7535 108.839 13.7535C110.434 13.7535 111.673 14.2339 112.557 15.1946C113.46 16.1361 113.912 17.4523 113.912 19.1431V29H109.848V19.7772C109.848 19.0086 109.656 18.413 109.271 17.9903C108.906 17.5483 108.407 17.3274 107.773 17.3274C106.985 17.3274 106.255 17.654 105.582 18.3073C104.91 18.9606 104.41 19.7964 104.083 20.8147V29H100.02V19.7772C100.02 19.0278 99.8275 18.4322 99.4433 17.9903C99.059 17.5483 98.5498 17.3274 97.9157 17.3274C97.2048 17.3274 96.5323 17.5964 95.8982 18.1344C95.2834 18.6531 94.7838 19.3929 94.3995 20.3536V29H90.3357V14.157ZM117.525 14.157H121.502V16.4627C122.674 14.6566 124.259 13.7535 126.257 13.7535C127.391 13.7535 128.352 14.0225 129.14 14.5605C129.947 15.0793 130.533 15.8287 130.898 16.8086C131.57 15.7518 132.32 14.9832 133.146 14.5029C133.991 14.0033 134.952 13.7535 136.028 13.7535C137.623 13.7535 138.862 14.2339 139.746 15.1946C140.649 16.1361 141.1 17.4523 141.1 19.1431V29H137.037V19.7772C137.037 19.0086 136.844 18.413 136.46 17.9903C136.095 17.5483 135.596 17.3274 134.961 17.3274C134.174 17.3274 133.444 17.654 132.771 18.3073C132.099 18.9606 131.599 19.7964 131.272 20.8147V29H127.209V19.7772C127.209 19.0278 127.016 18.4322 126.632 17.9903C126.248 17.5483 125.739 17.3274 125.105 17.3274C124.394 17.3274 123.721 17.5964 123.087 18.1344C122.472 18.6531 121.973 19.3929 121.588 20.3536V29H117.525V14.157ZM146.443 7.96043H151.083V11.7072H146.443V7.96043ZM144.195 25.5126H146.962V17.6444H144.195V14.157H151.025V25.5126H153.504V29H144.195V25.5126ZM156.197 14.157H160.174V16.7221C160.789 15.7038 161.5 14.9544 162.307 14.4741C163.114 13.9937 164.056 13.7535 165.132 13.7535C166.726 13.7535 167.975 14.2339 168.878 15.1946C169.781 16.1361 170.233 17.4523 170.233 19.1431V29H166.169V19.7772C166.169 19.0086 165.977 18.413 165.593 17.9903C165.208 17.5483 164.69 17.3274 164.036 17.3274C163.268 17.3274 162.538 17.6156 161.846 18.192C161.154 18.7684 160.626 19.4986 160.261 20.3824V29H156.197V14.157ZM178.658 35.5424C176.947 35.5424 175.276 35.3215 173.643 34.8796L174.421 31.3057C176.265 31.8437 177.803 32.1127 179.032 32.1127C180.012 32.1127 180.762 31.959 181.28 31.6516C181.818 31.3441 182.193 30.8638 182.404 30.2105C182.635 29.5572 182.769 28.6638 182.808 27.5301H182.721C182.183 28.145 181.559 28.6157 180.848 28.9424C180.137 29.269 179.359 29.4323 178.513 29.4323C176.823 29.4323 175.497 28.7983 174.536 27.5301C173.595 26.2428 173.124 24.4654 173.124 22.1982C173.124 19.4505 173.825 17.3562 175.228 15.9151C176.65 14.474 178.677 13.7535 181.309 13.7535C182.827 13.7535 184.633 13.9841 186.728 14.4452C186.766 18.4034 186.785 21.3816 186.785 23.3798C186.785 25.1668 186.776 26.5118 186.756 27.4148C186.718 30.1432 186.026 32.18 184.681 33.5249C183.355 34.8699 181.348 35.5424 178.658 35.5424ZM179.58 25.8873C180.175 25.8873 180.742 25.6663 181.28 25.2244C181.838 24.7825 182.327 24.158 182.75 23.351L182.721 17.5579C182.087 17.385 181.472 17.2985 180.877 17.2985C179.666 17.2985 178.744 17.6924 178.11 18.4802C177.495 19.268 177.188 20.4112 177.188 21.91C177.188 23.1589 177.389 24.1388 177.793 24.8497C178.216 25.5414 178.811 25.8873 179.58 25.8873ZM190.334 32.1415C191.199 31.0463 191.785 30.0952 192.093 29.2882L190.421 26.7808C190.421 26.3388 190.536 25.9065 190.767 25.4838C191.017 25.0419 191.362 24.6864 191.804 24.4174C192.246 24.1484 192.746 24.0139 193.303 24.0139C194.129 24.0139 194.831 24.3117 195.407 24.9074C195.983 25.4838 196.272 26.2235 196.272 27.1266C196.272 28.1834 195.849 29.3843 195.004 30.7293C194.158 32.0743 192.832 33.3808 191.026 34.649L190.334 32.1415ZM210.852 29.4323C209.181 29.4323 207.865 28.7983 206.904 27.5301C205.962 26.2428 205.492 24.4558 205.492 22.1693C205.492 19.4601 206.193 17.385 207.596 15.9439C209.017 14.4837 211.035 13.7535 213.648 13.7535C213.975 13.7535 214.465 13.7727 215.118 13.8112V7.96043H219.124V29H215.176L215.262 27.069H215.147C214.647 27.8375 214.032 28.4236 213.302 28.8271C212.591 29.2306 211.775 29.4323 210.852 29.4323ZM211.775 25.8873C212.389 25.8873 212.985 25.6279 213.562 25.1091C214.138 24.5711 214.657 23.8122 215.118 22.8322V17.5579C214.465 17.385 213.84 17.2985 213.244 17.2985C212.034 17.2985 211.112 17.6924 210.478 18.4802C209.863 19.268 209.555 20.4209 209.555 21.9388C209.555 23.1685 209.748 24.1388 210.132 24.8497C210.535 25.5414 211.083 25.8873 211.775 25.8873ZM229.85 29.4323C227.448 29.4323 225.555 28.7406 224.172 27.3572C222.808 25.9738 222.126 24.0523 222.126 21.5929C222.126 19.9981 222.424 18.6147 223.019 17.4426C223.615 16.2514 224.451 15.3387 225.527 14.7046C226.622 14.0706 227.9 13.7535 229.36 13.7535C231.512 13.7535 233.164 14.4452 234.317 15.8287C235.47 17.2121 236.046 19.2104 236.046 21.8235C236.046 22.2654 236.037 22.5921 236.018 22.8034H226.218C226.411 23.8218 226.852 24.5999 227.544 25.1379C228.236 25.6567 229.168 25.9161 230.34 25.9161C231.051 25.9161 231.79 25.8297 232.559 25.6567C233.328 25.4646 234 25.2148 234.577 24.9074L235.239 28.1642C234.471 28.5677 233.616 28.8751 232.674 29.0865C231.752 29.317 230.811 29.4323 229.85 29.4323ZM232.156 19.7484C232.098 18.9221 231.81 18.2689 231.291 17.7885C230.772 17.2889 230.08 17.0391 229.216 17.0391C228.39 17.0391 227.707 17.2793 227.169 17.7597C226.651 18.24 226.324 18.9029 226.19 19.7484H232.156ZM243.381 29.4323C242.439 29.4323 241.527 29.3362 240.643 29.1441C239.778 28.952 239.038 28.6926 238.424 28.3659L238.798 24.9074C239.451 25.3109 240.172 25.6375 240.96 25.8873C241.748 26.1371 242.487 26.262 243.179 26.262C243.832 26.262 244.38 26.1467 244.822 25.9161C245.264 25.6663 245.485 25.3109 245.485 24.8497C245.485 24.4847 245.331 24.2061 245.024 24.0139C244.716 23.8026 244.13 23.5432 243.266 23.2357L242.487 22.9475C241.661 22.6401 240.989 22.3519 240.47 22.0829C239.951 21.7947 239.48 21.3623 239.058 20.7859C238.635 20.2095 238.424 19.4505 238.424 18.509C238.424 17.0103 238.981 15.8479 240.095 15.0217C241.229 14.1762 242.699 13.7535 244.505 13.7535C245.927 13.7535 247.425 14.0321 249.001 14.5893L248.453 18.0191C247.896 17.6924 247.262 17.433 246.551 17.2409C245.859 17.0295 245.206 16.9239 244.591 16.9239C243.957 16.9239 243.448 17.0295 243.064 17.2409C242.699 17.4523 242.516 17.7597 242.516 18.1632C242.516 18.5475 242.67 18.8357 242.977 19.0278C243.285 19.22 243.804 19.4409 244.534 19.6907C245.11 19.9021 245.446 20.027 245.542 20.0654C246.349 20.392 247.022 20.7091 247.56 21.0165C248.098 21.3239 248.569 21.7851 248.972 22.3999C249.376 22.9956 249.577 23.7641 249.577 24.7056C249.577 26.2812 249.011 27.4629 247.877 28.2506C246.743 29.0384 245.245 29.4323 243.381 29.4323ZM254.185 7.96043H258.825V11.7072H254.185V7.96043ZM251.937 25.5126H254.704V17.6444H251.937V14.157H258.768V25.5126H261.246V29H251.937V25.5126ZM268.752 35.5424C267.042 35.5424 265.371 35.3215 263.737 34.8796L264.516 31.3057C266.36 31.8437 267.897 32.1127 269.127 32.1127C270.107 32.1127 270.856 31.959 271.375 31.6516C271.913 31.3441 272.288 30.8638 272.499 30.2105C272.73 29.5572 272.864 28.6638 272.903 27.5301H272.816C272.278 28.145 271.654 28.6157 270.943 28.9424C270.232 29.269 269.454 29.4323 268.608 29.4323C266.917 29.4323 265.592 28.7983 264.631 27.5301C263.689 26.2428 263.219 24.4654 263.219 22.1982C263.219 19.4505 263.92 17.3562 265.323 15.9151C266.744 14.474 268.772 13.7535 271.404 13.7535C272.922 13.7535 274.728 13.9841 276.822 14.4452C276.861 18.4034 276.88 21.3816 276.88 23.3798C276.88 25.1668 276.87 26.5118 276.851 27.4148C276.813 30.1432 276.121 32.18 274.776 33.5249C273.45 34.8699 271.442 35.5424 268.752 35.5424ZM269.675 25.8873C270.27 25.8873 270.837 25.6663 271.375 25.2244C271.932 24.7825 272.422 24.158 272.845 23.351L272.816 17.5579C272.182 17.385 271.567 17.2985 270.972 17.2985C269.761 17.2985 268.839 17.6924 268.205 18.4802C267.59 19.268 267.282 20.4112 267.282 21.91C267.282 23.1589 267.484 24.1388 267.888 24.8497C268.31 25.5414 268.906 25.8873 269.675 25.8873ZM280.573 14.157H284.551V16.7221C285.166 15.7038 285.876 14.9544 286.683 14.4741C287.49 13.9937 288.432 13.7535 289.508 13.7535C291.103 13.7535 292.352 14.2339 293.255 15.1946C294.158 16.1361 294.609 17.4523 294.609 19.1431V29H290.546V19.7772C290.546 19.0086 290.353 18.413 289.969 17.9903C289.585 17.5483 289.066 17.3274 288.413 17.3274C287.644 17.3274 286.914 17.6156 286.222 18.192C285.531 18.7684 285.002 19.4986 284.637 20.3824V29H280.573V14.157ZM301.91 19.2296C301.084 19.2296 300.382 18.9414 299.806 18.3649C299.23 17.7693 298.941 17.068 298.941 16.261C298.941 15.454 299.23 14.7623 299.806 14.1858C300.382 13.6094 301.084 13.3212 301.91 13.3212C302.717 13.3212 303.409 13.6094 303.985 14.1858C304.581 14.7623 304.879 15.454 304.879 16.261C304.879 17.068 304.581 17.7693 303.985 18.3649C303.409 18.9414 302.717 19.2296 301.91 19.2296ZM301.91 29.6917C301.084 29.6917 300.382 29.4035 299.806 28.8271C299.23 28.2314 298.941 27.5301 298.941 26.7231C298.941 25.9161 299.23 25.2244 299.806 24.648C300.382 24.0716 301.084 23.7833 301.91 23.7833C302.717 23.7833 303.409 24.0716 303.985 24.648C304.581 25.2244 304.879 25.9161 304.879 26.7231C304.879 27.5301 304.581 28.2314 303.985 28.8271C303.409 29.4035 302.717 29.6917 301.91 29.6917Z" fill="#D50004"/>
<path d="M7.23415 48.2121H12.2491L19.3679 67.4071H15.0447L13.4884 63.0263H5.93719L4.46731 67.4071H0.201749L7.23415 48.2121ZM12.2491 59.4524L9.65514 52.103L7.14769 59.4524H12.2491ZM20.7718 63.9197H23.3946V49.8261H20.916V46.3675H27.4584V63.9197H30.0811V67.4071H20.7718V63.9197ZM39.4152 67.8394C37.0134 67.8394 35.1208 67.1477 33.7374 65.7643C32.3732 64.3809 31.6911 62.4594 31.6911 60C31.6911 58.4052 31.9889 57.0218 32.5845 55.8498C33.1802 54.6585 34.016 53.7458 35.092 53.1117C36.1872 52.4777 37.4649 52.1606 38.9252 52.1606C41.0772 52.1606 42.7296 52.8523 43.8825 54.2358C45.0354 55.6192 45.6118 57.6175 45.6118 60.2306C45.6118 60.6725 45.6022 60.9992 45.583 61.2105H35.7837C35.9758 62.2289 36.4178 63.007 37.1095 63.545C37.8012 64.0638 38.7331 64.3232 39.9052 64.3232C40.6161 64.3232 41.3558 64.2368 42.1244 64.0638C42.893 63.8717 43.5655 63.6219 44.1419 63.3145L44.8048 66.5713C44.0362 66.9748 43.1812 67.2822 42.2397 67.4936C41.3174 67.7241 40.3759 67.8394 39.4152 67.8394ZM41.7209 58.1555C41.6633 57.3292 41.375 56.676 40.8563 56.1956C40.3375 55.696 39.6458 55.4463 38.7811 55.4463C37.9549 55.4463 37.2728 55.6864 36.7348 56.1668C36.216 56.6471 35.8894 57.31 35.7549 58.1555H41.7209ZM54.026 62.8533L51.0574 67.4071H46.446L51.9221 59.7406L46.9648 52.5641L51.4609 52.3336L54.2566 56.5415L56.8505 52.5641H61.289L56.3894 59.5389L61.7213 67.4071L57.2252 67.6377L54.026 62.8533ZM67.6664 67.8394C66.1293 67.8394 64.9092 67.1861 64.0061 65.8796C63.103 64.573 62.6515 62.7957 62.6515 60.5476C62.6515 57.8192 63.3432 55.7441 64.7266 54.3222C66.11 52.8812 68.0987 52.1606 70.6926 52.1606C72.1529 52.1606 73.863 52.3912 75.8228 52.8523V67.4071H71.9608L72.0472 65.0438H71.932C71.4324 65.9468 70.8175 66.6385 70.0874 67.1189C69.3765 67.5992 68.5695 67.8394 67.6664 67.8394ZM68.531 64.2944C69.1267 64.2944 69.7127 63.9774 70.2891 63.3433C70.8656 62.7092 71.4036 61.8638 71.9031 60.807V55.965C71.2883 55.7921 70.6734 55.7056 70.0586 55.7056C68.9057 55.7056 68.0315 56.0995 67.4358 56.8873C66.8594 57.6751 66.5712 58.8376 66.5712 60.3747C66.5712 61.5852 66.7441 62.5459 67.09 63.2568C67.4358 63.9485 67.9162 64.2944 68.531 64.2944ZM79.7529 52.5641H83.7302V55.1292C84.3451 54.1109 85.056 53.3615 85.863 52.8812C86.67 52.4008 87.6115 52.1606 88.6875 52.1606C90.2823 52.1606 91.5312 52.641 92.4343 53.6017C93.3373 54.5432 93.7889 55.8594 93.7889 57.5502V67.4071H89.7251V58.1843C89.7251 57.4157 89.5329 56.8201 89.1486 56.3974C88.7644 55.9554 88.2456 55.7345 87.5923 55.7345C86.8237 55.7345 86.0936 56.0227 85.4019 56.5991C84.7102 57.1755 84.1818 57.9057 83.8167 58.7895V67.4071H79.7529V52.5641ZM102.181 67.8394C100.51 67.8394 99.1935 67.2054 98.2328 65.9372C97.2913 64.6499 96.8205 62.8629 96.8205 60.5764C96.8205 57.8672 97.5218 55.7921 98.9245 54.351C100.346 52.8908 102.364 52.1606 104.977 52.1606C105.304 52.1606 105.794 52.1798 106.447 52.2183V46.3675H110.453V67.4071H106.504L106.591 65.4761H106.476C105.976 66.2446 105.361 66.8307 104.631 67.2342C103.92 67.6377 103.104 67.8394 102.181 67.8394ZM103.104 64.2944C103.718 64.2944 104.314 64.035 104.89 63.5162C105.467 62.9782 105.986 62.2193 106.447 61.2393V55.965C105.794 55.7921 105.169 55.7056 104.573 55.7056C103.363 55.7056 102.441 56.0995 101.807 56.8873C101.192 57.6751 100.884 58.828 100.884 60.3459C100.884 61.5756 101.076 62.5459 101.461 63.2568C101.864 63.9485 102.412 64.2944 103.104 64.2944ZM121.179 67.8394C118.777 67.8394 116.884 67.1477 115.501 65.7643C114.137 64.3809 113.455 62.4594 113.455 60C113.455 58.4052 113.753 57.0218 114.348 55.8498C114.944 54.6585 115.78 53.7458 116.856 53.1117C117.951 52.4777 119.229 52.1606 120.689 52.1606C122.841 52.1606 124.493 52.8523 125.646 54.2358C126.799 55.6192 127.375 57.6175 127.375 60.2306C127.375 60.6725 127.366 60.9992 127.347 61.2105H117.547C117.739 62.2289 118.181 63.007 118.873 63.545C119.565 64.0638 120.497 64.3232 121.669 64.3232C122.38 64.3232 123.119 64.2368 123.888 64.0638C124.657 63.8717 125.329 63.6219 125.906 63.3145L126.568 66.5713C125.8 66.9748 124.945 67.2822 124.003 67.4936C123.081 67.7241 122.14 67.8394 121.179 67.8394ZM123.485 58.1555C123.427 57.3292 123.139 56.676 122.62 56.1956C122.101 55.696 121.409 55.4463 120.545 55.4463C119.719 55.4463 119.036 55.6864 118.498 56.1668C117.98 56.6471 117.653 57.31 117.519 58.1555H123.485ZM130.502 52.5641H134.566V54.9851H134.796C135.353 54.0052 135.901 53.2847 136.439 52.8235C136.996 52.3624 137.688 52.1318 138.514 52.1318C138.86 52.1318 139.148 52.1702 139.379 52.2471L138.946 56.6279C138.447 56.4934 138.043 56.4262 137.736 56.4262C137.294 56.4262 136.9 56.5126 136.554 56.6856C136.228 56.8585 135.93 57.0891 135.661 57.3773C135.411 57.6655 135.046 58.1074 134.566 58.7031V67.4071H130.502V52.5641ZM150.867 67.4359C149.503 67.4359 148.485 67.4263 147.812 67.4071V48.2121C148.638 48.1929 149.859 48.1833 151.473 48.1833C153.106 48.1833 154.326 48.1929 155.133 48.2121C157.016 48.2313 158.649 48.6156 160.032 49.365C161.435 50.0951 162.511 51.1423 163.26 52.5065C164.029 53.8707 164.413 55.4655 164.413 57.2908C164.413 59.2891 163.971 61.0472 163.088 62.5651C162.223 64.083 160.993 65.2647 159.398 66.1101C157.823 66.9556 155.988 67.3879 153.894 67.4071C153.221 67.4263 152.212 67.4359 150.867 67.4359ZM153.865 63.7756C155.805 63.7756 157.333 63.2088 158.447 62.0752C159.562 60.9415 160.119 59.3852 160.119 57.4061C160.119 55.6192 159.639 54.2454 158.678 53.2847C157.736 52.3239 156.372 51.8436 154.585 51.8436H151.991V63.7756H153.865ZM174.656 67.8394C172.254 67.8394 170.362 67.1477 168.978 65.7643C167.614 64.3809 166.932 62.4594 166.932 60C166.932 58.4052 167.23 57.0218 167.825 55.8498C168.421 54.6585 169.257 53.7458 170.333 53.1117C171.428 52.4777 172.706 52.1606 174.166 52.1606C176.318 52.1606 177.97 52.8523 179.123 54.2358C180.276 55.6192 180.852 57.6175 180.852 60.2306C180.852 60.6725 180.843 60.9992 180.824 61.2105H171.024C171.217 62.2289 171.658 63.007 172.35 63.545C173.042 64.0638 173.974 64.3232 175.146 64.3232C175.857 64.3232 176.597 64.2368 177.365 64.0638C178.134 63.8717 178.806 63.6219 179.383 63.3145L180.045 66.5713C179.277 66.9748 178.422 67.2822 177.48 67.4936C176.558 67.7241 175.617 67.8394 174.656 67.8394ZM176.962 58.1555C176.904 57.3292 176.616 56.676 176.097 56.1956C175.578 55.696 174.886 55.4463 174.022 55.4463C173.196 55.4463 172.513 55.6864 171.976 56.1668C171.457 56.6471 171.13 57.31 170.996 58.1555H176.962ZM183.892 52.5641H187.841L187.755 54.4951H187.87C188.369 53.7266 188.975 53.1405 189.686 52.737C190.416 52.3335 191.242 52.1318 192.164 52.1318C193.836 52.1318 195.142 52.7755 196.084 54.0628C197.045 55.331 197.525 57.1083 197.525 59.3948C197.525 62.104 196.814 64.1887 195.392 65.649C193.99 67.0901 191.982 67.8106 189.368 67.8106C189.042 67.8106 188.552 67.7914 187.899 67.753V73.6902H183.892V52.5641ZM189.772 64.2656C190.982 64.2656 191.895 63.8717 192.51 63.0839C193.144 62.2961 193.461 61.1433 193.461 59.6253C193.461 58.3956 193.259 57.4349 192.856 56.7432C192.472 56.0323 191.934 55.6768 191.242 55.6768C190.627 55.6768 190.031 55.9458 189.455 56.4838C188.879 57.0026 188.36 57.752 187.899 58.7319V64.0062C188.552 64.1791 189.176 64.2656 189.772 64.2656ZM199.301 63.9197H201.924V49.8261H199.445V46.3675H205.987V63.9197H208.61V67.4071H199.301V63.9197ZM217.8 67.8394C216.301 67.8394 214.976 67.5128 213.823 66.8595C212.689 66.2062 211.805 65.2935 211.171 64.1215C210.537 62.9302 210.22 61.5564 210.22 60C210.22 58.4437 210.527 57.0795 211.142 55.9074C211.776 54.7161 212.66 53.7938 213.794 53.1405C214.947 52.4873 216.273 52.1606 217.771 52.1606C219.27 52.1606 220.586 52.4873 221.72 53.1405C222.873 53.7746 223.756 54.6777 224.371 55.8498C225.005 57.0218 225.322 58.3764 225.322 59.9136C225.322 61.4699 225.005 62.8533 224.371 64.0638C223.756 65.2551 222.873 66.187 221.72 66.8595C220.586 67.5128 219.28 67.8394 217.8 67.8394ZM217.771 64.3232C218.809 64.3232 219.635 63.9293 220.25 63.1415C220.884 62.3346 221.201 61.2778 221.201 59.9712C221.201 58.6646 220.884 57.6271 220.25 56.8585C219.635 56.0707 218.809 55.6768 217.771 55.6768C216.734 55.6768 215.898 56.0707 215.264 56.8585C214.649 57.6271 214.342 58.6646 214.342 59.9712C214.342 61.2778 214.649 62.3346 215.264 63.1415C215.898 63.9293 216.734 64.3232 217.771 64.3232ZM226.465 52.6218L230.903 52.2183L234.189 62.911L237.33 52.5641H241.682L236.466 67.4071H231.71L226.465 52.6218Z" fill="#A60108"/>
</svg>
